<mxfile host="Electron" agent="Mozilla/5.0 (Windows NT 10.0; Win64; x64) AppleWebKit/537.36 (KHTML, like Gecko) draw.io/28.0.4 Chrome/138.0.7204.97 Electron/37.2.1 Safari/537.36" version="28.0.4">
  <diagram id="C5RBs43oDa-KdzZeNtuy" name="Page-1">
    <mxGraphModel dx="6758" dy="2965" grid="1" gridSize="10" guides="1" tooltips="1" connect="1" arrows="1" fold="1" page="1" pageScale="1" pageWidth="827" pageHeight="1169" math="0" shadow="0">
      <root>
        <mxCell id="WIyWlLk6GJQsqaUBKTNV-0" />
        <mxCell id="WIyWlLk6GJQsqaUBKTNV-1" parent="WIyWlLk6GJQsqaUBKTNV-0" />
        <mxCell id="M7CGMbNuYNeq0SnUNNgH-6" value="ทบทวนสัญลักษณ์" style="swimlane;fontFamily=Sarabun;fontSource=https%3A%2F%2Ffonts.googleapis.com%2Fcss%3Ffamily%3DSarabun;" parent="WIyWlLk6GJQsqaUBKTNV-1" vertex="1">
          <mxGeometry x="-720" y="20" width="640" height="290" as="geometry" />
        </mxCell>
        <mxCell id="M7CGMbNuYNeq0SnUNNgH-2" value="&lt;font data-font-src=&quot;https://fonts.googleapis.com/css?family=Sarabun&quot; face=&quot;Sarabun&quot;&gt;เริ่มต้น&lt;/font&gt;" style="ellipse;whiteSpace=wrap;html=1;" parent="M7CGMbNuYNeq0SnUNNgH-6" vertex="1">
          <mxGeometry x="20" y="40" width="130" height="30" as="geometry" />
        </mxCell>
        <mxCell id="M7CGMbNuYNeq0SnUNNgH-5" value="" style="endArrow=classic;html=1;rounded=0;" parent="M7CGMbNuYNeq0SnUNNgH-6" edge="1">
          <mxGeometry width="50" height="50" relative="1" as="geometry">
            <mxPoint x="84.5" y="70" as="sourcePoint" />
            <mxPoint x="84.5" y="120" as="targetPoint" />
          </mxGeometry>
        </mxCell>
        <mxCell id="M7CGMbNuYNeq0SnUNNgH-3" value="&lt;font face=&quot;Sarabun&quot;&gt;สิ้นสุด&lt;/font&gt;" style="ellipse;whiteSpace=wrap;html=1;" parent="M7CGMbNuYNeq0SnUNNgH-6" vertex="1">
          <mxGeometry x="150" y="90" width="130" height="30" as="geometry" />
        </mxCell>
        <mxCell id="M7CGMbNuYNeq0SnUNNgH-4" value="" style="endArrow=classic;html=1;rounded=0;" parent="M7CGMbNuYNeq0SnUNNgH-6" edge="1">
          <mxGeometry width="50" height="50" relative="1" as="geometry">
            <mxPoint x="214.5" y="40" as="sourcePoint" />
            <mxPoint x="214.5" y="90" as="targetPoint" />
          </mxGeometry>
        </mxCell>
        <mxCell id="mvioNwK95yMqdUQ73LqQ-0" value="กระบวนการ" style="rounded=0;whiteSpace=wrap;html=1;fontFamily=Sarabun;fontSource=https%3A%2F%2Ffonts.googleapis.com%2Fcss%3Ffamily%3DSarabun;" parent="M7CGMbNuYNeq0SnUNNgH-6" vertex="1">
          <mxGeometry x="320" y="70" width="120" height="30" as="geometry" />
        </mxCell>
        <mxCell id="mvioNwK95yMqdUQ73LqQ-1" value="" style="endArrow=classic;html=1;rounded=0;" parent="M7CGMbNuYNeq0SnUNNgH-6" edge="1">
          <mxGeometry width="50" height="50" relative="1" as="geometry">
            <mxPoint x="379" y="40" as="sourcePoint" />
            <mxPoint x="379.5" y="70" as="targetPoint" />
          </mxGeometry>
        </mxCell>
        <mxCell id="mvioNwK95yMqdUQ73LqQ-2" value="" style="endArrow=classic;html=1;rounded=0;" parent="M7CGMbNuYNeq0SnUNNgH-6" edge="1">
          <mxGeometry width="50" height="50" relative="1" as="geometry">
            <mxPoint x="379.75" y="100" as="sourcePoint" />
            <mxPoint x="380.25" y="130" as="targetPoint" />
          </mxGeometry>
        </mxCell>
        <mxCell id="mvioNwK95yMqdUQ73LqQ-3" value="ประโยคเงื่อนไข" style="rhombus;whiteSpace=wrap;html=1;fontFamily=Sarabun;fontSource=https%3A%2F%2Ffonts.googleapis.com%2Fcss%3Ffamily%3DSarabun;" parent="M7CGMbNuYNeq0SnUNNgH-6" vertex="1">
          <mxGeometry x="490" y="60" width="100" height="60" as="geometry" />
        </mxCell>
        <mxCell id="mvioNwK95yMqdUQ73LqQ-4" value="" style="endArrow=classic;html=1;rounded=0;" parent="M7CGMbNuYNeq0SnUNNgH-6" edge="1">
          <mxGeometry width="50" height="50" relative="1" as="geometry">
            <mxPoint x="539.71" y="30" as="sourcePoint" />
            <mxPoint x="540.21" y="60" as="targetPoint" />
          </mxGeometry>
        </mxCell>
        <mxCell id="mvioNwK95yMqdUQ73LqQ-5" value="" style="endArrow=classic;html=1;rounded=0;" parent="M7CGMbNuYNeq0SnUNNgH-6" edge="1">
          <mxGeometry width="50" height="50" relative="1" as="geometry">
            <mxPoint x="539.71" y="120" as="sourcePoint" />
            <mxPoint x="540" y="175" as="targetPoint" />
          </mxGeometry>
        </mxCell>
        <mxCell id="mvioNwK95yMqdUQ73LqQ-7" value="จริง" style="edgeLabel;html=1;align=center;verticalAlign=middle;resizable=0;points=[];fontFamily=Sarabun;fontSource=https%3A%2F%2Ffonts.googleapis.com%2Fcss%3Ffamily%3DSarabun;" parent="mvioNwK95yMqdUQ73LqQ-5" vertex="1" connectable="0">
          <mxGeometry x="-0.4142" y="-1" relative="1" as="geometry">
            <mxPoint as="offset" />
          </mxGeometry>
        </mxCell>
        <mxCell id="mvioNwK95yMqdUQ73LqQ-6" value="" style="endArrow=classic;html=1;rounded=0;exitX=1;exitY=0.5;exitDx=0;exitDy=0;" parent="M7CGMbNuYNeq0SnUNNgH-6" source="mvioNwK95yMqdUQ73LqQ-3" edge="1">
          <mxGeometry width="50" height="50" relative="1" as="geometry">
            <mxPoint x="620" y="95" as="sourcePoint" />
            <mxPoint x="610" y="175" as="targetPoint" />
            <Array as="points">
              <mxPoint x="610" y="90" />
            </Array>
          </mxGeometry>
        </mxCell>
        <mxCell id="mvioNwK95yMqdUQ73LqQ-8" value="&lt;font data-font-src=&quot;https://fonts.googleapis.com/css?family=Sarabun&quot; face=&quot;Sarabun&quot;&gt;เท็จ&lt;/font&gt;" style="edgeLabel;html=1;align=center;verticalAlign=middle;resizable=0;points=[];" parent="mvioNwK95yMqdUQ73LqQ-6" vertex="1" connectable="0">
          <mxGeometry x="-0.0019" y="-2" relative="1" as="geometry">
            <mxPoint as="offset" />
          </mxGeometry>
        </mxCell>
        <mxCell id="mvioNwK95yMqdUQ73LqQ-9" value="&lt;font data-font-src=&quot;https://fonts.googleapis.com/css?family=Sarabun&quot; face=&quot;Sarabun&quot;&gt;ฟังก์ชัน/โมดูล&lt;/font&gt;" style="shape=process;whiteSpace=wrap;html=1;backgroundOutline=1;" parent="M7CGMbNuYNeq0SnUNNgH-6" vertex="1">
          <mxGeometry x="25" y="180" width="120" height="30" as="geometry" />
        </mxCell>
        <mxCell id="mvioNwK95yMqdUQ73LqQ-11" value="" style="endArrow=classic;html=1;rounded=0;" parent="M7CGMbNuYNeq0SnUNNgH-6" edge="1">
          <mxGeometry width="50" height="50" relative="1" as="geometry">
            <mxPoint x="84.70999999999998" y="150" as="sourcePoint" />
            <mxPoint x="85.20999999999998" y="180" as="targetPoint" />
          </mxGeometry>
        </mxCell>
        <mxCell id="mvioNwK95yMqdUQ73LqQ-12" value="" style="endArrow=classic;html=1;rounded=0;" parent="M7CGMbNuYNeq0SnUNNgH-6" edge="1">
          <mxGeometry width="50" height="50" relative="1" as="geometry">
            <mxPoint x="84.70999999999998" y="210" as="sourcePoint" />
            <mxPoint x="85.20999999999998" y="240" as="targetPoint" />
          </mxGeometry>
        </mxCell>
        <mxCell id="mvioNwK95yMqdUQ73LqQ-13" value="" style="strokeWidth=2;html=1;shape=mxgraph.flowchart.start_2;whiteSpace=wrap;" parent="M7CGMbNuYNeq0SnUNNgH-6" vertex="1">
          <mxGeometry x="205" y="185" width="20" height="20" as="geometry" />
        </mxCell>
        <mxCell id="mvioNwK95yMqdUQ73LqQ-16" value="" style="endArrow=classic;html=1;rounded=0;" parent="M7CGMbNuYNeq0SnUNNgH-6" edge="1">
          <mxGeometry width="50" height="50" relative="1" as="geometry">
            <mxPoint x="214.70999999999998" y="155" as="sourcePoint" />
            <mxPoint x="215.20999999999998" y="185" as="targetPoint" />
          </mxGeometry>
        </mxCell>
        <mxCell id="mvioNwK95yMqdUQ73LqQ-17" value="" style="endArrow=classic;html=1;rounded=0;entryX=0;entryY=0.5;entryDx=0;entryDy=0;entryPerimeter=0;" parent="M7CGMbNuYNeq0SnUNNgH-6" target="mvioNwK95yMqdUQ73LqQ-13" edge="1">
          <mxGeometry width="50" height="50" relative="1" as="geometry">
            <mxPoint x="189.99999999999997" y="155" as="sourcePoint" />
            <mxPoint x="190.49999999999997" y="185" as="targetPoint" />
            <Array as="points">
              <mxPoint x="190" y="180" />
            </Array>
          </mxGeometry>
        </mxCell>
        <mxCell id="mvioNwK95yMqdUQ73LqQ-18" value="" style="endArrow=classic;html=1;rounded=0;entryX=1;entryY=0.5;entryDx=0;entryDy=0;entryPerimeter=0;" parent="M7CGMbNuYNeq0SnUNNgH-6" target="mvioNwK95yMqdUQ73LqQ-13" edge="1">
          <mxGeometry width="50" height="50" relative="1" as="geometry">
            <mxPoint x="239.99999999999997" y="155" as="sourcePoint" />
            <mxPoint x="240.49999999999997" y="185" as="targetPoint" />
            <Array as="points">
              <mxPoint x="240" y="180" />
            </Array>
          </mxGeometry>
        </mxCell>
        <mxCell id="mvioNwK95yMqdUQ73LqQ-19" value="" style="endArrow=classic;html=1;rounded=0;" parent="M7CGMbNuYNeq0SnUNNgH-6" edge="1">
          <mxGeometry width="50" height="50" relative="1" as="geometry">
            <mxPoint x="214.70999999999998" y="205" as="sourcePoint" />
            <mxPoint x="215.20999999999998" y="235" as="targetPoint" />
          </mxGeometry>
        </mxCell>
        <mxCell id="mvioNwK95yMqdUQ73LqQ-20" value="&lt;font data-font-src=&quot;https://fonts.googleapis.com/css?family=Sarabun&quot; face=&quot;Sarabun&quot;&gt;ตัวเชื่อม&lt;/font&gt;" style="text;html=1;align=center;verticalAlign=middle;resizable=0;points=[];autosize=1;strokeColor=none;fillColor=none;" parent="M7CGMbNuYNeq0SnUNNgH-6" vertex="1">
          <mxGeometry x="220" y="190" width="60" height="30" as="geometry" />
        </mxCell>
        <mxCell id="mvioNwK95yMqdUQ73LqQ-25" value="" style="endArrow=classic;html=1;rounded=0;" parent="M7CGMbNuYNeq0SnUNNgH-6" edge="1">
          <mxGeometry width="50" height="50" relative="1" as="geometry">
            <mxPoint x="353.71" y="165" as="sourcePoint" />
            <mxPoint x="354.21" y="195" as="targetPoint" />
          </mxGeometry>
        </mxCell>
        <mxCell id="mvioNwK95yMqdUQ73LqQ-21" value="" style="verticalLabelPosition=bottom;verticalAlign=top;html=1;shape=offPageConnector;rounded=0;size=0.5;" parent="M7CGMbNuYNeq0SnUNNgH-6" vertex="1">
          <mxGeometry x="339" y="195" width="30" height="30" as="geometry" />
        </mxCell>
        <mxCell id="mvioNwK95yMqdUQ73LqQ-26" value="" style="endArrow=classic;html=1;rounded=0;" parent="M7CGMbNuYNeq0SnUNNgH-6" edge="1">
          <mxGeometry width="50" height="50" relative="1" as="geometry">
            <mxPoint x="405.71" y="195" as="sourcePoint" />
            <mxPoint x="406.21" y="225" as="targetPoint" />
          </mxGeometry>
        </mxCell>
        <mxCell id="mvioNwK95yMqdUQ73LqQ-27" value="" style="verticalLabelPosition=bottom;verticalAlign=top;html=1;shape=offPageConnector;rounded=0;size=0.5;" parent="M7CGMbNuYNeq0SnUNNgH-6" vertex="1">
          <mxGeometry x="391" y="165" width="30" height="30" as="geometry" />
        </mxCell>
        <mxCell id="mvioNwK95yMqdUQ73LqQ-28" value="หน้าต่อไป" style="text;html=1;align=center;verticalAlign=middle;resizable=0;points=[];autosize=1;strokeColor=none;fillColor=none;fontFamily=Sarabun;fontSource=https%3A%2F%2Ffonts.googleapis.com%2Fcss%3Ffamily%3DSarabun;" parent="M7CGMbNuYNeq0SnUNNgH-6" vertex="1">
          <mxGeometry x="345" y="220" width="70" height="30" as="geometry" />
        </mxCell>
        <mxCell id="mvioNwK95yMqdUQ73LqQ-29" value="ก" style="text;html=1;align=center;verticalAlign=middle;resizable=0;points=[];autosize=1;strokeColor=none;fillColor=none;fontFamily=Sarabun;fontSource=https%3A%2F%2Ffonts.googleapis.com%2Fcss%3Ffamily%3DSarabun;" parent="M7CGMbNuYNeq0SnUNNgH-6" vertex="1">
          <mxGeometry x="339" y="190" width="30" height="30" as="geometry" />
        </mxCell>
        <mxCell id="mvioNwK95yMqdUQ73LqQ-30" value="ก" style="text;html=1;align=center;verticalAlign=middle;resizable=0;points=[];autosize=1;strokeColor=none;fillColor=none;fontFamily=Sarabun;fontSource=https%3A%2F%2Ffonts.googleapis.com%2Fcss%3Ffamily%3DSarabun;" parent="M7CGMbNuYNeq0SnUNNgH-6" vertex="1">
          <mxGeometry x="391" y="160" width="30" height="30" as="geometry" />
        </mxCell>
        <mxCell id="mvioNwK95yMqdUQ73LqQ-32" value="แสดงผล/รับค่า" style="shape=parallelogram;perimeter=parallelogramPerimeter;whiteSpace=wrap;html=1;fixedSize=1;fontFamily=Sarabun;fontSource=https%3A%2F%2Ffonts.googleapis.com%2Fcss%3Ffamily%3DSarabun;" parent="M7CGMbNuYNeq0SnUNNgH-6" vertex="1">
          <mxGeometry x="450" y="210" width="120" height="30" as="geometry" />
        </mxCell>
        <mxCell id="mvioNwK95yMqdUQ73LqQ-33" value="" style="endArrow=classic;html=1;rounded=0;" parent="M7CGMbNuYNeq0SnUNNgH-6" edge="1">
          <mxGeometry width="50" height="50" relative="1" as="geometry">
            <mxPoint x="509.71" y="180" as="sourcePoint" />
            <mxPoint x="510.21" y="210" as="targetPoint" />
          </mxGeometry>
        </mxCell>
        <mxCell id="mvioNwK95yMqdUQ73LqQ-34" value="" style="endArrow=classic;html=1;rounded=0;" parent="M7CGMbNuYNeq0SnUNNgH-6" edge="1">
          <mxGeometry width="50" height="50" relative="1" as="geometry">
            <mxPoint x="509.71" y="240" as="sourcePoint" />
            <mxPoint x="510.21" y="270" as="targetPoint" />
          </mxGeometry>
        </mxCell>
        <mxCell id="mvioNwK95yMqdUQ73LqQ-36" value="แก้ไขโจทย์ปัญหา" style="swimlane;fontFamily=Sarabun;fontSource=https%3A%2F%2Ffonts.googleapis.com%2Fcss%3Ffamily%3DSarabun;" parent="WIyWlLk6GJQsqaUBKTNV-1" vertex="1">
          <mxGeometry x="-2850" y="940" width="4922" height="5510" as="geometry" />
        </mxCell>
        <mxCell id="zLY2eILlOZ2N5INOVSJT-2" value="" style="edgeStyle=orthogonalEdgeStyle;rounded=0;orthogonalLoop=1;jettySize=auto;html=1;" parent="mvioNwK95yMqdUQ73LqQ-36" source="mvioNwK95yMqdUQ73LqQ-35" target="zLY2eILlOZ2N5INOVSJT-0" edge="1">
          <mxGeometry relative="1" as="geometry" />
        </mxCell>
        <mxCell id="mvioNwK95yMqdUQ73LqQ-35" value="&lt;font data-font-src=&quot;https://fonts.googleapis.com/css?family=Sarabun&quot; face=&quot;Sarabun&quot;&gt;เริ่มต้น&lt;/font&gt;" style="ellipse;whiteSpace=wrap;html=1;" parent="mvioNwK95yMqdUQ73LqQ-36" vertex="1">
          <mxGeometry x="1940" y="100" width="130" height="30" as="geometry" />
        </mxCell>
        <mxCell id="zLY2eILlOZ2N5INOVSJT-0" value="&lt;font face=&quot;Sarabun&quot;&gt;แสดงรายการ&lt;/font&gt;" style="rounded=0;whiteSpace=wrap;html=1;" parent="mvioNwK95yMqdUQ73LqQ-36" vertex="1">
          <mxGeometry x="1952.5" y="220" width="105" height="50" as="geometry" />
        </mxCell>
        <mxCell id="zLY2eILlOZ2N5INOVSJT-11" value="" style="edgeStyle=orthogonalEdgeStyle;rounded=0;orthogonalLoop=1;jettySize=auto;html=1;" parent="mvioNwK95yMqdUQ73LqQ-36" source="zLY2eILlOZ2N5INOVSJT-0" target="zLY2eILlOZ2N5INOVSJT-10" edge="1">
          <mxGeometry relative="1" as="geometry">
            <mxPoint x="2004.9999999999995" y="310" as="sourcePoint" />
          </mxGeometry>
        </mxCell>
        <mxCell id="zLY2eILlOZ2N5INOVSJT-64" value="" style="edgeStyle=orthogonalEdgeStyle;rounded=0;orthogonalLoop=1;jettySize=auto;html=1;" parent="mvioNwK95yMqdUQ73LqQ-36" source="zLY2eILlOZ2N5INOVSJT-10" edge="1">
          <mxGeometry relative="1" as="geometry">
            <mxPoint x="1279" y="380" as="targetPoint" />
          </mxGeometry>
        </mxCell>
        <mxCell id="zLY2eILlOZ2N5INOVSJT-67" value="F" style="edgeLabel;html=1;align=center;verticalAlign=middle;resizable=0;points=[];" parent="zLY2eILlOZ2N5INOVSJT-64" vertex="1" connectable="0">
          <mxGeometry y="3" relative="1" as="geometry">
            <mxPoint as="offset" />
          </mxGeometry>
        </mxCell>
        <mxCell id="mAKKexBR_3H4zC9qlrCY-4" value="" style="edgeStyle=orthogonalEdgeStyle;rounded=0;orthogonalLoop=1;jettySize=auto;html=1;" parent="mvioNwK95yMqdUQ73LqQ-36" source="zLY2eILlOZ2N5INOVSJT-10" target="mAKKexBR_3H4zC9qlrCY-10" edge="1">
          <mxGeometry relative="1" as="geometry">
            <mxPoint x="2819" y="380" as="targetPoint" />
          </mxGeometry>
        </mxCell>
        <mxCell id="mAKKexBR_3H4zC9qlrCY-74" value="T" style="edgeLabel;html=1;align=center;verticalAlign=middle;resizable=0;points=[];" parent="mAKKexBR_3H4zC9qlrCY-4" vertex="1" connectable="0">
          <mxGeometry x="-0.2046" y="1" relative="1" as="geometry">
            <mxPoint as="offset" />
          </mxGeometry>
        </mxCell>
        <mxCell id="zLY2eILlOZ2N5INOVSJT-10" value="ประเภทของ&lt;div&gt;น้ำ/&lt;span style=&quot;background-color: transparent; color: light-dark(rgb(0, 0, 0), rgb(255, 255, 255));&quot;&gt;ขนม&lt;/span&gt;&lt;/div&gt;" style="rhombus;whiteSpace=wrap;html=1;rounded=0;" parent="mvioNwK95yMqdUQ73LqQ-36" vertex="1">
          <mxGeometry x="1945" y="340" width="120" height="80" as="geometry" />
        </mxCell>
        <mxCell id="mAKKexBR_3H4zC9qlrCY-76" value="" style="edgeStyle=orthogonalEdgeStyle;rounded=0;orthogonalLoop=1;jettySize=auto;html=1;entryX=0.5;entryY=0;entryDx=0;entryDy=0;" parent="mvioNwK95yMqdUQ73LqQ-36" source="mAKKexBR_3H4zC9qlrCY-10" target="mAKKexBR_3H4zC9qlrCY-131" edge="1">
          <mxGeometry relative="1" as="geometry">
            <mxPoint x="3147" y="730" as="targetPoint" />
          </mxGeometry>
        </mxCell>
        <mxCell id="mAKKexBR_3H4zC9qlrCY-10" value="ประเภทของ&lt;div&gt;น้ำ&lt;/div&gt;" style="rounded=0;whiteSpace=wrap;html=1;" parent="mvioNwK95yMqdUQ73LqQ-36" vertex="1">
          <mxGeometry x="3087" y="350" width="120" height="60" as="geometry" />
        </mxCell>
        <mxCell id="mAKKexBR_3H4zC9qlrCY-242" value="" style="edgeStyle=orthogonalEdgeStyle;rounded=0;orthogonalLoop=1;jettySize=auto;html=1;entryX=0.5;entryY=0;entryDx=0;entryDy=0;" parent="mvioNwK95yMqdUQ73LqQ-36" source="mAKKexBR_3H4zC9qlrCY-11" target="mAKKexBR_3H4zC9qlrCY-207" edge="1">
          <mxGeometry relative="1" as="geometry">
            <mxPoint x="1219" y="490" as="targetPoint" />
          </mxGeometry>
        </mxCell>
        <mxCell id="mAKKexBR_3H4zC9qlrCY-11" value="ประเภทของขนม" style="rounded=0;whiteSpace=wrap;html=1;" parent="mvioNwK95yMqdUQ73LqQ-36" vertex="1">
          <mxGeometry x="1156" y="350" width="120" height="60" as="geometry" />
        </mxCell>
        <mxCell id="mAKKexBR_3H4zC9qlrCY-133" value="" style="edgeStyle=orthogonalEdgeStyle;rounded=0;orthogonalLoop=1;jettySize=auto;html=1;" parent="mvioNwK95yMqdUQ73LqQ-36" source="mAKKexBR_3H4zC9qlrCY-131" target="mAKKexBR_3H4zC9qlrCY-132" edge="1">
          <mxGeometry relative="1" as="geometry" />
        </mxCell>
        <mxCell id="mAKKexBR_3H4zC9qlrCY-135" value="" style="edgeStyle=orthogonalEdgeStyle;rounded=0;orthogonalLoop=1;jettySize=auto;html=1;" parent="mvioNwK95yMqdUQ73LqQ-36" source="mAKKexBR_3H4zC9qlrCY-131" target="mAKKexBR_3H4zC9qlrCY-134" edge="1">
          <mxGeometry relative="1" as="geometry" />
        </mxCell>
        <mxCell id="mAKKexBR_3H4zC9qlrCY-137" value="" style="edgeStyle=orthogonalEdgeStyle;rounded=0;orthogonalLoop=1;jettySize=auto;html=1;" parent="mvioNwK95yMqdUQ73LqQ-36" source="mAKKexBR_3H4zC9qlrCY-131" target="mAKKexBR_3H4zC9qlrCY-136" edge="1">
          <mxGeometry relative="1" as="geometry" />
        </mxCell>
        <mxCell id="mAKKexBR_3H4zC9qlrCY-139" value="" style="edgeStyle=orthogonalEdgeStyle;rounded=0;orthogonalLoop=1;jettySize=auto;html=1;" parent="mvioNwK95yMqdUQ73LqQ-36" source="mAKKexBR_3H4zC9qlrCY-131" target="mAKKexBR_3H4zC9qlrCY-138" edge="1">
          <mxGeometry relative="1" as="geometry" />
        </mxCell>
        <mxCell id="mAKKexBR_3H4zC9qlrCY-131" value="" style="ellipse;whiteSpace=wrap;html=1;aspect=fixed;" parent="mvioNwK95yMqdUQ73LqQ-36" vertex="1">
          <mxGeometry x="3132" y="759" width="30" height="30" as="geometry" />
        </mxCell>
        <mxCell id="mAKKexBR_3H4zC9qlrCY-132" value="โค้ก 10 บาท" style="whiteSpace=wrap;html=1;" parent="mvioNwK95yMqdUQ73LqQ-36" vertex="1">
          <mxGeometry x="2460" y="890" width="120" height="60" as="geometry" />
        </mxCell>
        <mxCell id="mAKKexBR_3H4zC9qlrCY-141" value="" style="edgeStyle=orthogonalEdgeStyle;rounded=0;orthogonalLoop=1;jettySize=auto;html=1;" parent="mvioNwK95yMqdUQ73LqQ-36" source="mAKKexBR_3H4zC9qlrCY-134" target="mAKKexBR_3H4zC9qlrCY-140" edge="1">
          <mxGeometry relative="1" as="geometry" />
        </mxCell>
        <mxCell id="mAKKexBR_3H4zC9qlrCY-134" value="น้ำเขียว 12 บาท" style="whiteSpace=wrap;html=1;" parent="mvioNwK95yMqdUQ73LqQ-36" vertex="1">
          <mxGeometry x="2770" y="890" width="120" height="60" as="geometry" />
        </mxCell>
        <mxCell id="mAKKexBR_3H4zC9qlrCY-136" value="ลาเต้ หวานเจี๊ยบ 35บาท" style="whiteSpace=wrap;html=1;" parent="mvioNwK95yMqdUQ73LqQ-36" vertex="1">
          <mxGeometry x="3730" y="890" width="160" height="60" as="geometry" />
        </mxCell>
        <mxCell id="mAKKexBR_3H4zC9qlrCY-143" value="" style="edgeStyle=orthogonalEdgeStyle;rounded=0;orthogonalLoop=1;jettySize=auto;html=1;entryX=1;entryY=0.5;entryDx=0;entryDy=0;" parent="mvioNwK95yMqdUQ73LqQ-36" source="mAKKexBR_3H4zC9qlrCY-138" target="mAKKexBR_3H4zC9qlrCY-140" edge="1">
          <mxGeometry relative="1" as="geometry">
            <mxPoint x="3360" y="920" as="targetPoint" />
          </mxGeometry>
        </mxCell>
        <mxCell id="mAKKexBR_3H4zC9qlrCY-138" value="อาเมริกาโน่ 30 บาท" style="whiteSpace=wrap;html=1;" parent="mvioNwK95yMqdUQ73LqQ-36" vertex="1">
          <mxGeometry x="3440" y="890" width="120" height="60" as="geometry" />
        </mxCell>
        <mxCell id="mAKKexBR_3H4zC9qlrCY-152" value="" style="edgeStyle=orthogonalEdgeStyle;rounded=0;orthogonalLoop=1;jettySize=auto;html=1;entryX=0.5;entryY=0;entryDx=0;entryDy=0;" parent="mvioNwK95yMqdUQ73LqQ-36" source="mAKKexBR_3H4zC9qlrCY-140" target="mAKKexBR_3H4zC9qlrCY-146" edge="1">
          <mxGeometry relative="1" as="geometry">
            <mxPoint x="3147" y="1015" as="targetPoint" />
          </mxGeometry>
        </mxCell>
        <mxCell id="mAKKexBR_3H4zC9qlrCY-140" value="" style="ellipse;whiteSpace=wrap;html=1;" parent="mvioNwK95yMqdUQ73LqQ-36" vertex="1">
          <mxGeometry x="3132" y="905" width="30" height="30" as="geometry" />
        </mxCell>
        <mxCell id="mAKKexBR_3H4zC9qlrCY-154" value="" style="edgeStyle=orthogonalEdgeStyle;rounded=0;orthogonalLoop=1;jettySize=auto;html=1;" parent="mvioNwK95yMqdUQ73LqQ-36" source="mAKKexBR_3H4zC9qlrCY-146" target="mAKKexBR_3H4zC9qlrCY-153" edge="1">
          <mxGeometry relative="1" as="geometry" />
        </mxCell>
        <mxCell id="mAKKexBR_3H4zC9qlrCY-146" value="" style="ellipse;whiteSpace=wrap;html=1;aspect=fixed;" parent="mvioNwK95yMqdUQ73LqQ-36" vertex="1">
          <mxGeometry x="3128" y="1100" width="38" height="38" as="geometry" />
        </mxCell>
        <mxCell id="mAKKexBR_3H4zC9qlrCY-149" value="" style="edgeStyle=orthogonalEdgeStyle;rounded=0;orthogonalLoop=1;jettySize=auto;html=1;entryX=0;entryY=0.5;entryDx=0;entryDy=0;exitX=0.558;exitY=1.037;exitDx=0;exitDy=0;exitPerimeter=0;" parent="mvioNwK95yMqdUQ73LqQ-36" source="mAKKexBR_3H4zC9qlrCY-132" target="mAKKexBR_3H4zC9qlrCY-146" edge="1">
          <mxGeometry relative="1" as="geometry">
            <mxPoint x="2476.9999999999995" y="950.0000000000005" as="sourcePoint" />
            <mxPoint x="3096.7199999998825" y="1117.8600000000006" as="targetPoint" />
            <Array as="points">
              <mxPoint x="2527" y="1118" />
              <mxPoint x="3124" y="1118" />
            </Array>
          </mxGeometry>
        </mxCell>
        <mxCell id="mAKKexBR_3H4zC9qlrCY-150" value="" style="edgeStyle=orthogonalEdgeStyle;rounded=0;orthogonalLoop=1;jettySize=auto;html=1;entryX=1;entryY=0.5;entryDx=0;entryDy=0;exitX=0.5;exitY=1;exitDx=0;exitDy=0;" parent="mvioNwK95yMqdUQ73LqQ-36" source="mAKKexBR_3H4zC9qlrCY-136" target="mAKKexBR_3H4zC9qlrCY-146" edge="1">
          <mxGeometry relative="1" as="geometry">
            <mxPoint x="3808" y="1110" as="sourcePoint" />
            <mxPoint x="3530" y="1110" as="targetPoint" />
          </mxGeometry>
        </mxCell>
        <mxCell id="mAKKexBR_3H4zC9qlrCY-156" value="" style="edgeStyle=orthogonalEdgeStyle;rounded=0;orthogonalLoop=1;jettySize=auto;html=1;" parent="mvioNwK95yMqdUQ73LqQ-36" source="mAKKexBR_3H4zC9qlrCY-153" target="mAKKexBR_3H4zC9qlrCY-155" edge="1">
          <mxGeometry relative="1" as="geometry" />
        </mxCell>
        <mxCell id="mAKKexBR_3H4zC9qlrCY-409" value="F" style="edgeLabel;html=1;align=center;verticalAlign=middle;resizable=0;points=[];" parent="mAKKexBR_3H4zC9qlrCY-156" vertex="1" connectable="0">
          <mxGeometry x="-0.0206" y="1" relative="1" as="geometry">
            <mxPoint as="offset" />
          </mxGeometry>
        </mxCell>
        <mxCell id="mAKKexBR_3H4zC9qlrCY-158" value="" style="edgeStyle=orthogonalEdgeStyle;rounded=0;orthogonalLoop=1;jettySize=auto;html=1;" parent="mvioNwK95yMqdUQ73LqQ-36" source="mAKKexBR_3H4zC9qlrCY-153" target="mAKKexBR_3H4zC9qlrCY-157" edge="1">
          <mxGeometry relative="1" as="geometry" />
        </mxCell>
        <mxCell id="mAKKexBR_3H4zC9qlrCY-410" value="T" style="edgeLabel;html=1;align=center;verticalAlign=middle;resizable=0;points=[];" parent="mAKKexBR_3H4zC9qlrCY-158" vertex="1" connectable="0">
          <mxGeometry x="-0.1606" y="5" relative="1" as="geometry">
            <mxPoint as="offset" />
          </mxGeometry>
        </mxCell>
        <mxCell id="mAKKexBR_3H4zC9qlrCY-153" value="เอาไหม" style="rhombus;whiteSpace=wrap;html=1;" parent="mvioNwK95yMqdUQ73LqQ-36" vertex="1">
          <mxGeometry x="3107" y="1250" width="80" height="80" as="geometry" />
        </mxCell>
        <mxCell id="mAKKexBR_3H4zC9qlrCY-155" value="ไม่เอา" style="whiteSpace=wrap;html=1;" parent="mvioNwK95yMqdUQ73LqQ-36" vertex="1">
          <mxGeometry x="2800" y="1260" width="120" height="60" as="geometry" />
        </mxCell>
        <mxCell id="mAKKexBR_3H4zC9qlrCY-166" value="" style="edgeStyle=orthogonalEdgeStyle;rounded=0;orthogonalLoop=1;jettySize=auto;html=1;" parent="mvioNwK95yMqdUQ73LqQ-36" source="mAKKexBR_3H4zC9qlrCY-157" target="mAKKexBR_3H4zC9qlrCY-165" edge="1">
          <mxGeometry relative="1" as="geometry" />
        </mxCell>
        <mxCell id="mAKKexBR_3H4zC9qlrCY-157" value="เอา" style="whiteSpace=wrap;html=1;" parent="mvioNwK95yMqdUQ73LqQ-36" vertex="1">
          <mxGeometry x="3087" y="1480" width="120" height="60" as="geometry" />
        </mxCell>
        <mxCell id="mAKKexBR_3H4zC9qlrCY-177" value="" style="edgeStyle=orthogonalEdgeStyle;rounded=0;orthogonalLoop=1;jettySize=auto;html=1;" parent="mvioNwK95yMqdUQ73LqQ-36" source="mAKKexBR_3H4zC9qlrCY-162" target="zLY2eILlOZ2N5INOVSJT-10" edge="1">
          <mxGeometry relative="1" as="geometry" />
        </mxCell>
        <mxCell id="mAKKexBR_3H4zC9qlrCY-162" value="" style="ellipse;whiteSpace=wrap;html=1;aspect=fixed;" parent="mvioNwK95yMqdUQ73LqQ-36" vertex="1">
          <mxGeometry x="1990" y="450" width="30" height="30" as="geometry" />
        </mxCell>
        <mxCell id="mAKKexBR_3H4zC9qlrCY-161" value="" style="edgeStyle=orthogonalEdgeStyle;rounded=0;orthogonalLoop=1;jettySize=auto;html=1;exitX=0.008;exitY=0.396;exitDx=0;exitDy=0;exitPerimeter=0;entryX=1;entryY=0.5;entryDx=0;entryDy=0;" parent="mvioNwK95yMqdUQ73LqQ-36" source="mAKKexBR_3H4zC9qlrCY-155" target="mAKKexBR_3H4zC9qlrCY-162" edge="1">
          <mxGeometry relative="1" as="geometry">
            <mxPoint x="2930" y="1290" as="sourcePoint" />
            <mxPoint x="2200" y="460" as="targetPoint" />
            <Array as="points">
              <mxPoint x="2201" y="1284" />
              <mxPoint x="2201" y="465" />
            </Array>
          </mxGeometry>
        </mxCell>
        <mxCell id="mAKKexBR_3H4zC9qlrCY-168" value="" style="edgeStyle=orthogonalEdgeStyle;rounded=0;orthogonalLoop=1;jettySize=auto;html=1;" parent="mvioNwK95yMqdUQ73LqQ-36" source="mAKKexBR_3H4zC9qlrCY-165" target="mAKKexBR_3H4zC9qlrCY-167" edge="1">
          <mxGeometry relative="1" as="geometry" />
        </mxCell>
        <mxCell id="mAKKexBR_3H4zC9qlrCY-392" value="T" style="edgeLabel;html=1;align=center;verticalAlign=middle;resizable=0;points=[];" parent="mAKKexBR_3H4zC9qlrCY-168" vertex="1" connectable="0">
          <mxGeometry x="-0.0022" y="-2" relative="1" as="geometry">
            <mxPoint as="offset" />
          </mxGeometry>
        </mxCell>
        <mxCell id="mAKKexBR_3H4zC9qlrCY-170" value="" style="edgeStyle=orthogonalEdgeStyle;rounded=0;orthogonalLoop=1;jettySize=auto;html=1;" parent="mvioNwK95yMqdUQ73LqQ-36" source="mAKKexBR_3H4zC9qlrCY-165" target="mAKKexBR_3H4zC9qlrCY-169" edge="1">
          <mxGeometry relative="1" as="geometry" />
        </mxCell>
        <mxCell id="mAKKexBR_3H4zC9qlrCY-391" value="F" style="edgeLabel;html=1;align=center;verticalAlign=middle;resizable=0;points=[];" parent="mAKKexBR_3H4zC9qlrCY-170" vertex="1" connectable="0">
          <mxGeometry x="-0.086" y="2" relative="1" as="geometry">
            <mxPoint as="offset" />
          </mxGeometry>
        </mxCell>
        <mxCell id="mAKKexBR_3H4zC9qlrCY-165" value="ตรวจสอบสินค้า" style="rhombus;whiteSpace=wrap;html=1;" parent="mvioNwK95yMqdUQ73LqQ-36" vertex="1">
          <mxGeometry x="3090.5" y="1630" width="113" height="80" as="geometry" />
        </mxCell>
        <mxCell id="mAKKexBR_3H4zC9qlrCY-174" value="" style="edgeStyle=orthogonalEdgeStyle;rounded=0;orthogonalLoop=1;jettySize=auto;html=1;" parent="mvioNwK95yMqdUQ73LqQ-36" source="mAKKexBR_3H4zC9qlrCY-167" target="mAKKexBR_3H4zC9qlrCY-173" edge="1">
          <mxGeometry relative="1" as="geometry" />
        </mxCell>
        <mxCell id="mAKKexBR_3H4zC9qlrCY-167" value="มีสินค้า x ชิ้น" style="whiteSpace=wrap;html=1;" parent="mvioNwK95yMqdUQ73LqQ-36" vertex="1">
          <mxGeometry x="3087" y="1840" width="120" height="60" as="geometry" />
        </mxCell>
        <mxCell id="mAKKexBR_3H4zC9qlrCY-172" value="" style="edgeStyle=orthogonalEdgeStyle;rounded=0;orthogonalLoop=1;jettySize=auto;html=1;entryX=0;entryY=0.5;entryDx=0;entryDy=0;" parent="mvioNwK95yMqdUQ73LqQ-36" source="mAKKexBR_3H4zC9qlrCY-169" target="mAKKexBR_3H4zC9qlrCY-173" edge="1">
          <mxGeometry relative="1" as="geometry">
            <mxPoint x="2910" y="2150" as="targetPoint" />
            <Array as="points">
              <mxPoint x="2910" y="1940" />
              <mxPoint x="2911" y="2045" />
            </Array>
          </mxGeometry>
        </mxCell>
        <mxCell id="mAKKexBR_3H4zC9qlrCY-169" value="ไม่มี" style="whiteSpace=wrap;html=1;" parent="mvioNwK95yMqdUQ73LqQ-36" vertex="1">
          <mxGeometry x="2850" y="1640" width="120" height="60" as="geometry" />
        </mxCell>
        <mxCell id="mAKKexBR_3H4zC9qlrCY-186" value="" style="edgeStyle=orthogonalEdgeStyle;rounded=0;orthogonalLoop=1;jettySize=auto;html=1;entryX=1;entryY=0.5;entryDx=0;entryDy=0;" parent="mvioNwK95yMqdUQ73LqQ-36" source="mAKKexBR_3H4zC9qlrCY-173" target="mAKKexBR_3H4zC9qlrCY-183" edge="1">
          <mxGeometry relative="1" as="geometry">
            <mxPoint x="3147" y="2140" as="targetPoint" />
            <Array as="points">
              <mxPoint x="3147" y="2280" />
            </Array>
          </mxGeometry>
        </mxCell>
        <mxCell id="mAKKexBR_3H4zC9qlrCY-173" value="" style="ellipse;whiteSpace=wrap;html=1;" parent="mvioNwK95yMqdUQ73LqQ-36" vertex="1">
          <mxGeometry x="3130.5" y="2030" width="33" height="30" as="geometry" />
        </mxCell>
        <mxCell id="mAKKexBR_3H4zC9qlrCY-261" value="" style="edgeStyle=orthogonalEdgeStyle;rounded=0;orthogonalLoop=1;jettySize=auto;html=1;" parent="mvioNwK95yMqdUQ73LqQ-36" source="mAKKexBR_3H4zC9qlrCY-178" target="mAKKexBR_3H4zC9qlrCY-260" edge="1">
          <mxGeometry relative="1" as="geometry" />
        </mxCell>
        <mxCell id="mAKKexBR_3H4zC9qlrCY-178" value="สินค้าทั้งหมดที่เลือกเอาไว้" style="rounded=0;whiteSpace=wrap;html=1;" parent="mvioNwK95yMqdUQ73LqQ-36" vertex="1">
          <mxGeometry x="1920" y="2470" width="170" height="80" as="geometry" />
        </mxCell>
        <mxCell id="mAKKexBR_3H4zC9qlrCY-194" value="" style="edgeStyle=orthogonalEdgeStyle;rounded=0;orthogonalLoop=1;jettySize=auto;html=1;" parent="mvioNwK95yMqdUQ73LqQ-36" source="mAKKexBR_3H4zC9qlrCY-183" target="mAKKexBR_3H4zC9qlrCY-193" edge="1">
          <mxGeometry relative="1" as="geometry" />
        </mxCell>
        <mxCell id="mAKKexBR_3H4zC9qlrCY-393" value="T" style="edgeLabel;html=1;align=center;verticalAlign=middle;resizable=0;points=[];" parent="mAKKexBR_3H4zC9qlrCY-194" vertex="1" connectable="0">
          <mxGeometry x="-0.3524" y="2" relative="1" as="geometry">
            <mxPoint as="offset" />
          </mxGeometry>
        </mxCell>
        <mxCell id="mAKKexBR_3H4zC9qlrCY-196" value="" style="edgeStyle=orthogonalEdgeStyle;rounded=0;orthogonalLoop=1;jettySize=auto;html=1;" parent="mvioNwK95yMqdUQ73LqQ-36" source="mAKKexBR_3H4zC9qlrCY-183" target="mAKKexBR_3H4zC9qlrCY-195" edge="1">
          <mxGeometry relative="1" as="geometry" />
        </mxCell>
        <mxCell id="mAKKexBR_3H4zC9qlrCY-394" value="F" style="edgeLabel;html=1;align=center;verticalAlign=middle;resizable=0;points=[];" parent="mAKKexBR_3H4zC9qlrCY-196" vertex="1" connectable="0">
          <mxGeometry x="-0.0618" y="-1" relative="1" as="geometry">
            <mxPoint as="offset" />
          </mxGeometry>
        </mxCell>
        <mxCell id="mAKKexBR_3H4zC9qlrCY-183" value="เพิ่มสืนค้าไหม" style="rhombus;whiteSpace=wrap;html=1;rounded=0;" parent="mvioNwK95yMqdUQ73LqQ-36" vertex="1">
          <mxGeometry x="2320" y="2235" width="100" height="90" as="geometry" />
        </mxCell>
        <mxCell id="mAKKexBR_3H4zC9qlrCY-200" value="" style="edgeStyle=orthogonalEdgeStyle;rounded=0;orthogonalLoop=1;jettySize=auto;html=1;" parent="mvioNwK95yMqdUQ73LqQ-36" source="mAKKexBR_3H4zC9qlrCY-193" target="mAKKexBR_3H4zC9qlrCY-199" edge="1">
          <mxGeometry relative="1" as="geometry" />
        </mxCell>
        <mxCell id="mAKKexBR_3H4zC9qlrCY-193" value="เพิ่ม" style="whiteSpace=wrap;html=1;rounded=0;" parent="mvioNwK95yMqdUQ73LqQ-36" vertex="1">
          <mxGeometry x="2130" y="2250" width="120" height="60" as="geometry" />
        </mxCell>
        <mxCell id="mAKKexBR_3H4zC9qlrCY-198" value="" style="edgeStyle=orthogonalEdgeStyle;rounded=0;orthogonalLoop=1;jettySize=auto;html=1;entryX=1;entryY=0.5;entryDx=0;entryDy=0;" parent="mvioNwK95yMqdUQ73LqQ-36" source="mAKKexBR_3H4zC9qlrCY-195" target="mAKKexBR_3H4zC9qlrCY-178" edge="1">
          <mxGeometry relative="1" as="geometry">
            <mxPoint x="2230" y="2510" as="targetPoint" />
          </mxGeometry>
        </mxCell>
        <mxCell id="mAKKexBR_3H4zC9qlrCY-195" value="ไม่เพิ่ม" style="whiteSpace=wrap;html=1;rounded=0;" parent="mvioNwK95yMqdUQ73LqQ-36" vertex="1">
          <mxGeometry x="2310" y="2480" width="120" height="60" as="geometry" />
        </mxCell>
        <mxCell id="mAKKexBR_3H4zC9qlrCY-202" value="" style="edgeStyle=orthogonalEdgeStyle;rounded=0;orthogonalLoop=1;jettySize=auto;html=1;entryX=0.5;entryY=1;entryDx=0;entryDy=0;" parent="mvioNwK95yMqdUQ73LqQ-36" source="mAKKexBR_3H4zC9qlrCY-199" target="mAKKexBR_3H4zC9qlrCY-162" edge="1">
          <mxGeometry relative="1" as="geometry">
            <mxPoint x="1990" y="2190" as="targetPoint" />
          </mxGeometry>
        </mxCell>
        <mxCell id="mAKKexBR_3H4zC9qlrCY-199" value="" style="ellipse;whiteSpace=wrap;html=1;rounded=0;" parent="mvioNwK95yMqdUQ73LqQ-36" vertex="1">
          <mxGeometry x="1995" y="2270" width="20" height="20" as="geometry" />
        </mxCell>
        <mxCell id="mAKKexBR_3H4zC9qlrCY-253" value="" style="edgeStyle=orthogonalEdgeStyle;rounded=0;orthogonalLoop=1;jettySize=auto;html=1;" parent="mvioNwK95yMqdUQ73LqQ-36" source="mAKKexBR_3H4zC9qlrCY-237" target="mAKKexBR_3H4zC9qlrCY-252" edge="1">
          <mxGeometry relative="1" as="geometry" />
        </mxCell>
        <mxCell id="mAKKexBR_3H4zC9qlrCY-395" value="T" style="edgeLabel;html=1;align=center;verticalAlign=middle;resizable=0;points=[];" parent="mAKKexBR_3H4zC9qlrCY-253" vertex="1" connectable="0">
          <mxGeometry x="-0.2438" y="2" relative="1" as="geometry">
            <mxPoint as="offset" />
          </mxGeometry>
        </mxCell>
        <mxCell id="mAKKexBR_3H4zC9qlrCY-237" value="เพิ่มสืนค้าไหม" style="rhombus;whiteSpace=wrap;html=1;rounded=0;" parent="mvioNwK95yMqdUQ73LqQ-36" vertex="1">
          <mxGeometry x="1550" y="2235" width="100" height="90" as="geometry" />
        </mxCell>
        <mxCell id="mAKKexBR_3H4zC9qlrCY-257" value="" style="edgeStyle=orthogonalEdgeStyle;rounded=0;orthogonalLoop=1;jettySize=auto;html=1;entryX=0;entryY=0.5;entryDx=0;entryDy=0;" parent="mvioNwK95yMqdUQ73LqQ-36" source="mAKKexBR_3H4zC9qlrCY-238" target="mAKKexBR_3H4zC9qlrCY-178" edge="1">
          <mxGeometry relative="1" as="geometry">
            <mxPoint x="1740" y="2500" as="targetPoint" />
          </mxGeometry>
        </mxCell>
        <mxCell id="mAKKexBR_3H4zC9qlrCY-238" value="ไม่เพิ่ม" style="whiteSpace=wrap;html=1;rounded=0;" parent="mvioNwK95yMqdUQ73LqQ-36" vertex="1">
          <mxGeometry x="1540" y="2480" width="120" height="60" as="geometry" />
        </mxCell>
        <mxCell id="mAKKexBR_3H4zC9qlrCY-236" value="" style="edgeStyle=orthogonalEdgeStyle;rounded=0;orthogonalLoop=1;jettySize=auto;html=1;" parent="mvioNwK95yMqdUQ73LqQ-36" source="mAKKexBR_3H4zC9qlrCY-237" target="mAKKexBR_3H4zC9qlrCY-238" edge="1">
          <mxGeometry relative="1" as="geometry" />
        </mxCell>
        <mxCell id="mAKKexBR_3H4zC9qlrCY-396" value="F" style="edgeLabel;html=1;align=center;verticalAlign=middle;resizable=0;points=[];" parent="mAKKexBR_3H4zC9qlrCY-236" vertex="1" connectable="0">
          <mxGeometry x="-0.074" y="2" relative="1" as="geometry">
            <mxPoint as="offset" />
          </mxGeometry>
        </mxCell>
        <mxCell id="mAKKexBR_3H4zC9qlrCY-247" value="" style="edgeStyle=orthogonalEdgeStyle;rounded=0;orthogonalLoop=1;jettySize=auto;html=1;" parent="mvioNwK95yMqdUQ73LqQ-36" source="mAKKexBR_3H4zC9qlrCY-210" target="mAKKexBR_3H4zC9qlrCY-217" edge="1">
          <mxGeometry relative="1" as="geometry" />
        </mxCell>
        <mxCell id="mAKKexBR_3H4zC9qlrCY-210" value="จิ้นส้มหมก 15 บาท" style="whiteSpace=wrap;html=1;" parent="mvioNwK95yMqdUQ73LqQ-36" vertex="1">
          <mxGeometry x="1156" y="811" width="120" height="60" as="geometry" />
        </mxCell>
        <mxCell id="mAKKexBR_3H4zC9qlrCY-246" value="" style="edgeStyle=orthogonalEdgeStyle;rounded=0;orthogonalLoop=1;jettySize=auto;html=1;entryX=0;entryY=0.5;entryDx=0;entryDy=0;" parent="mvioNwK95yMqdUQ73LqQ-36" source="mAKKexBR_3H4zC9qlrCY-208" target="mAKKexBR_3H4zC9qlrCY-217" edge="1">
          <mxGeometry relative="1" as="geometry">
            <mxPoint x="860" y="1060" as="targetPoint" />
            <Array as="points">
              <mxPoint x="869" y="994" />
            </Array>
          </mxGeometry>
        </mxCell>
        <mxCell id="mAKKexBR_3H4zC9qlrCY-208" value="เมล็ดทานตะวัน 13 บาท" style="whiteSpace=wrap;html=1;" parent="mvioNwK95yMqdUQ73LqQ-36" vertex="1">
          <mxGeometry x="809" y="811" width="120" height="60" as="geometry" />
        </mxCell>
        <mxCell id="mAKKexBR_3H4zC9qlrCY-203" value="" style="edgeStyle=orthogonalEdgeStyle;rounded=0;orthogonalLoop=1;jettySize=auto;html=1;" parent="mvioNwK95yMqdUQ73LqQ-36" source="mAKKexBR_3H4zC9qlrCY-207" target="mAKKexBR_3H4zC9qlrCY-208" edge="1">
          <mxGeometry relative="1" as="geometry" />
        </mxCell>
        <mxCell id="mAKKexBR_3H4zC9qlrCY-204" value="" style="edgeStyle=orthogonalEdgeStyle;rounded=0;orthogonalLoop=1;jettySize=auto;html=1;" parent="mvioNwK95yMqdUQ73LqQ-36" source="mAKKexBR_3H4zC9qlrCY-207" target="mAKKexBR_3H4zC9qlrCY-210" edge="1">
          <mxGeometry relative="1" as="geometry" />
        </mxCell>
        <mxCell id="mAKKexBR_3H4zC9qlrCY-206" value="" style="edgeStyle=orthogonalEdgeStyle;rounded=0;orthogonalLoop=1;jettySize=auto;html=1;" parent="mvioNwK95yMqdUQ73LqQ-36" source="mAKKexBR_3H4zC9qlrCY-207" target="mAKKexBR_3H4zC9qlrCY-213" edge="1">
          <mxGeometry relative="1" as="geometry" />
        </mxCell>
        <mxCell id="mAKKexBR_3H4zC9qlrCY-207" value="" style="ellipse;whiteSpace=wrap;html=1;aspect=fixed;" parent="mvioNwK95yMqdUQ73LqQ-36" vertex="1">
          <mxGeometry x="1201" y="650" width="30" height="30" as="geometry" />
        </mxCell>
        <mxCell id="mAKKexBR_3H4zC9qlrCY-244" value="" style="edgeStyle=orthogonalEdgeStyle;rounded=0;orthogonalLoop=1;jettySize=auto;html=1;entryX=1;entryY=0.5;entryDx=0;entryDy=0;" parent="mvioNwK95yMqdUQ73LqQ-36" source="mAKKexBR_3H4zC9qlrCY-213" target="mAKKexBR_3H4zC9qlrCY-217" edge="1">
          <mxGeometry relative="1" as="geometry">
            <mxPoint x="1569" y="1005" as="targetPoint" />
            <Array as="points">
              <mxPoint x="1569" y="994" />
            </Array>
          </mxGeometry>
        </mxCell>
        <mxCell id="mAKKexBR_3H4zC9qlrCY-213" value="ถั่วแปบ 20 บาท" style="whiteSpace=wrap;html=1;" parent="mvioNwK95yMqdUQ73LqQ-36" vertex="1">
          <mxGeometry x="1509" y="811" width="120" height="60" as="geometry" />
        </mxCell>
        <mxCell id="mAKKexBR_3H4zC9qlrCY-216" value="" style="edgeStyle=orthogonalEdgeStyle;rounded=0;orthogonalLoop=1;jettySize=auto;html=1;" parent="mvioNwK95yMqdUQ73LqQ-36" source="mAKKexBR_3H4zC9qlrCY-217" target="mAKKexBR_3H4zC9qlrCY-222" edge="1">
          <mxGeometry relative="1" as="geometry" />
        </mxCell>
        <mxCell id="mAKKexBR_3H4zC9qlrCY-220" value="" style="edgeStyle=orthogonalEdgeStyle;rounded=0;orthogonalLoop=1;jettySize=auto;html=1;" parent="mvioNwK95yMqdUQ73LqQ-36" source="mAKKexBR_3H4zC9qlrCY-222" target="mAKKexBR_3H4zC9qlrCY-223" edge="1">
          <mxGeometry relative="1" as="geometry" />
        </mxCell>
        <mxCell id="mAKKexBR_3H4zC9qlrCY-411" value="F" style="edgeLabel;html=1;align=center;verticalAlign=middle;resizable=0;points=[];" parent="mAKKexBR_3H4zC9qlrCY-220" vertex="1" connectable="0">
          <mxGeometry x="-0.2777" y="2" relative="1" as="geometry">
            <mxPoint as="offset" />
          </mxGeometry>
        </mxCell>
        <mxCell id="mAKKexBR_3H4zC9qlrCY-221" value="" style="edgeStyle=orthogonalEdgeStyle;rounded=0;orthogonalLoop=1;jettySize=auto;html=1;" parent="mvioNwK95yMqdUQ73LqQ-36" source="mAKKexBR_3H4zC9qlrCY-222" target="mAKKexBR_3H4zC9qlrCY-225" edge="1">
          <mxGeometry relative="1" as="geometry" />
        </mxCell>
        <mxCell id="mAKKexBR_3H4zC9qlrCY-412" value="T" style="edgeLabel;html=1;align=center;verticalAlign=middle;resizable=0;points=[];" parent="mAKKexBR_3H4zC9qlrCY-221" vertex="1" connectable="0">
          <mxGeometry x="-0.0292" y="1" relative="1" as="geometry">
            <mxPoint as="offset" />
          </mxGeometry>
        </mxCell>
        <mxCell id="mAKKexBR_3H4zC9qlrCY-224" value="" style="edgeStyle=orthogonalEdgeStyle;rounded=0;orthogonalLoop=1;jettySize=auto;html=1;" parent="mvioNwK95yMqdUQ73LqQ-36" source="mAKKexBR_3H4zC9qlrCY-225" target="mAKKexBR_3H4zC9qlrCY-228" edge="1">
          <mxGeometry relative="1" as="geometry" />
        </mxCell>
        <mxCell id="mAKKexBR_3H4zC9qlrCY-226" value="" style="edgeStyle=orthogonalEdgeStyle;rounded=0;orthogonalLoop=1;jettySize=auto;html=1;" parent="mvioNwK95yMqdUQ73LqQ-36" source="mAKKexBR_3H4zC9qlrCY-228" target="mAKKexBR_3H4zC9qlrCY-230" edge="1">
          <mxGeometry relative="1" as="geometry" />
        </mxCell>
        <mxCell id="mAKKexBR_3H4zC9qlrCY-397" value="T" style="edgeLabel;html=1;align=center;verticalAlign=middle;resizable=0;points=[];" parent="mAKKexBR_3H4zC9qlrCY-226" vertex="1" connectable="0">
          <mxGeometry x="-0.1289" relative="1" as="geometry">
            <mxPoint as="offset" />
          </mxGeometry>
        </mxCell>
        <mxCell id="mAKKexBR_3H4zC9qlrCY-227" value="" style="edgeStyle=orthogonalEdgeStyle;rounded=0;orthogonalLoop=1;jettySize=auto;html=1;" parent="mvioNwK95yMqdUQ73LqQ-36" source="mAKKexBR_3H4zC9qlrCY-228" target="mAKKexBR_3H4zC9qlrCY-232" edge="1">
          <mxGeometry relative="1" as="geometry" />
        </mxCell>
        <mxCell id="mAKKexBR_3H4zC9qlrCY-398" value="F" style="edgeLabel;html=1;align=center;verticalAlign=middle;resizable=0;points=[];" parent="mAKKexBR_3H4zC9qlrCY-227" vertex="1" connectable="0">
          <mxGeometry x="-0.1463" relative="1" as="geometry">
            <mxPoint as="offset" />
          </mxGeometry>
        </mxCell>
        <mxCell id="mAKKexBR_3H4zC9qlrCY-229" value="" style="edgeStyle=orthogonalEdgeStyle;rounded=0;orthogonalLoop=1;jettySize=auto;html=1;" parent="mvioNwK95yMqdUQ73LqQ-36" source="mAKKexBR_3H4zC9qlrCY-230" target="mAKKexBR_3H4zC9qlrCY-234" edge="1">
          <mxGeometry relative="1" as="geometry" />
        </mxCell>
        <mxCell id="mAKKexBR_3H4zC9qlrCY-259" value="" style="edgeStyle=orthogonalEdgeStyle;rounded=0;orthogonalLoop=1;jettySize=auto;html=1;entryX=0;entryY=0.5;entryDx=0;entryDy=0;" parent="mvioNwK95yMqdUQ73LqQ-36" source="mAKKexBR_3H4zC9qlrCY-223" target="mAKKexBR_3H4zC9qlrCY-162" edge="1">
          <mxGeometry relative="1" as="geometry">
            <mxPoint x="1610" y="1263" as="targetPoint" />
            <Array as="points">
              <mxPoint x="1820" y="1263" />
              <mxPoint x="1820" y="465" />
            </Array>
          </mxGeometry>
        </mxCell>
        <mxCell id="mAKKexBR_3H4zC9qlrCY-223" value="ไม่เอา" style="whiteSpace=wrap;html=1;" parent="mvioNwK95yMqdUQ73LqQ-36" vertex="1">
          <mxGeometry x="1410" y="1233" width="120" height="60" as="geometry" />
        </mxCell>
        <mxCell id="mAKKexBR_3H4zC9qlrCY-249" value="" style="edgeStyle=orthogonalEdgeStyle;rounded=0;orthogonalLoop=1;jettySize=auto;html=1;entryX=1;entryY=0.5;entryDx=0;entryDy=0;" parent="mvioNwK95yMqdUQ73LqQ-36" source="mAKKexBR_3H4zC9qlrCY-232" target="mAKKexBR_3H4zC9qlrCY-234" edge="1">
          <mxGeometry relative="1" as="geometry">
            <mxPoint x="1500" y="1988" as="targetPoint" />
            <Array as="points">
              <mxPoint x="1500" y="2018" />
            </Array>
          </mxGeometry>
        </mxCell>
        <mxCell id="mAKKexBR_3H4zC9qlrCY-232" value="ไม่มี" style="whiteSpace=wrap;html=1;" parent="mvioNwK95yMqdUQ73LqQ-36" vertex="1">
          <mxGeometry x="1440" y="1613" width="120" height="60" as="geometry" />
        </mxCell>
        <mxCell id="mAKKexBR_3H4zC9qlrCY-217" value="" style="ellipse;whiteSpace=wrap;html=1;aspect=fixed;" parent="mvioNwK95yMqdUQ73LqQ-36" vertex="1">
          <mxGeometry x="1197" y="975" width="38" height="38" as="geometry" />
        </mxCell>
        <mxCell id="mAKKexBR_3H4zC9qlrCY-222" value="เอาไหม" style="rhombus;whiteSpace=wrap;html=1;" parent="mvioNwK95yMqdUQ73LqQ-36" vertex="1">
          <mxGeometry x="1176" y="1223" width="80" height="80" as="geometry" />
        </mxCell>
        <mxCell id="mAKKexBR_3H4zC9qlrCY-225" value="เอา" style="whiteSpace=wrap;html=1;" parent="mvioNwK95yMqdUQ73LqQ-36" vertex="1">
          <mxGeometry x="1156" y="1453" width="120" height="60" as="geometry" />
        </mxCell>
        <mxCell id="mAKKexBR_3H4zC9qlrCY-228" value="ตรวจสอบสินค้า" style="rhombus;whiteSpace=wrap;html=1;" parent="mvioNwK95yMqdUQ73LqQ-36" vertex="1">
          <mxGeometry x="1159.5" y="1603" width="113" height="80" as="geometry" />
        </mxCell>
        <mxCell id="mAKKexBR_3H4zC9qlrCY-230" value="มีสินค้า x ชิ้น" style="whiteSpace=wrap;html=1;" parent="mvioNwK95yMqdUQ73LqQ-36" vertex="1">
          <mxGeometry x="1156" y="1813" width="120" height="60" as="geometry" />
        </mxCell>
        <mxCell id="mAKKexBR_3H4zC9qlrCY-251" value="" style="edgeStyle=orthogonalEdgeStyle;rounded=0;orthogonalLoop=1;jettySize=auto;html=1;entryX=0;entryY=0.5;entryDx=0;entryDy=0;" parent="mvioNwK95yMqdUQ73LqQ-36" source="mAKKexBR_3H4zC9qlrCY-234" target="mAKKexBR_3H4zC9qlrCY-237" edge="1">
          <mxGeometry relative="1" as="geometry">
            <mxPoint x="1216" y="2098" as="targetPoint" />
            <Array as="points">
              <mxPoint x="1216" y="2280" />
            </Array>
          </mxGeometry>
        </mxCell>
        <mxCell id="mAKKexBR_3H4zC9qlrCY-234" value="" style="ellipse;whiteSpace=wrap;html=1;" parent="mvioNwK95yMqdUQ73LqQ-36" vertex="1">
          <mxGeometry x="1199.5" y="2003" width="33" height="30" as="geometry" />
        </mxCell>
        <mxCell id="mAKKexBR_3H4zC9qlrCY-255" value="" style="edgeStyle=orthogonalEdgeStyle;rounded=0;orthogonalLoop=1;jettySize=auto;html=1;entryX=0;entryY=0.5;entryDx=0;entryDy=0;" parent="mvioNwK95yMqdUQ73LqQ-36" source="mAKKexBR_3H4zC9qlrCY-252" target="mAKKexBR_3H4zC9qlrCY-199" edge="1">
          <mxGeometry relative="1" as="geometry">
            <mxPoint x="1940" y="2285" as="targetPoint" />
          </mxGeometry>
        </mxCell>
        <mxCell id="mAKKexBR_3H4zC9qlrCY-252" value="เพื่ม" style="whiteSpace=wrap;html=1;rounded=0;" parent="mvioNwK95yMqdUQ73LqQ-36" vertex="1">
          <mxGeometry x="1750" y="2250" width="120" height="60" as="geometry" />
        </mxCell>
        <mxCell id="mAKKexBR_3H4zC9qlrCY-263" value="" style="edgeStyle=orthogonalEdgeStyle;rounded=0;orthogonalLoop=1;jettySize=auto;html=1;" parent="mvioNwK95yMqdUQ73LqQ-36" source="mAKKexBR_3H4zC9qlrCY-260" target="mAKKexBR_3H4zC9qlrCY-262" edge="1">
          <mxGeometry relative="1" as="geometry" />
        </mxCell>
        <mxCell id="mAKKexBR_3H4zC9qlrCY-260" value="ใส่เงินเข้าในตู้" style="whiteSpace=wrap;html=1;rounded=0;" parent="mvioNwK95yMqdUQ73LqQ-36" vertex="1">
          <mxGeometry x="1945" y="2820" width="120" height="60" as="geometry" />
        </mxCell>
        <mxCell id="mAKKexBR_3H4zC9qlrCY-265" value="" style="edgeStyle=orthogonalEdgeStyle;rounded=0;orthogonalLoop=1;jettySize=auto;html=1;" parent="mvioNwK95yMqdUQ73LqQ-36" source="mAKKexBR_3H4zC9qlrCY-262" target="mAKKexBR_3H4zC9qlrCY-264" edge="1">
          <mxGeometry relative="1" as="geometry" />
        </mxCell>
        <mxCell id="mAKKexBR_3H4zC9qlrCY-400" value="F" style="edgeLabel;html=1;align=center;verticalAlign=middle;resizable=0;points=[];" parent="mAKKexBR_3H4zC9qlrCY-265" vertex="1" connectable="0">
          <mxGeometry x="0.1943" y="4" relative="1" as="geometry">
            <mxPoint as="offset" />
          </mxGeometry>
        </mxCell>
        <mxCell id="mAKKexBR_3H4zC9qlrCY-275" value="" style="edgeStyle=orthogonalEdgeStyle;rounded=0;orthogonalLoop=1;jettySize=auto;html=1;" parent="mvioNwK95yMqdUQ73LqQ-36" source="mAKKexBR_3H4zC9qlrCY-262" target="mAKKexBR_3H4zC9qlrCY-274" edge="1">
          <mxGeometry relative="1" as="geometry" />
        </mxCell>
        <mxCell id="mAKKexBR_3H4zC9qlrCY-399" value="T" style="edgeLabel;html=1;align=center;verticalAlign=middle;resizable=0;points=[];" parent="mAKKexBR_3H4zC9qlrCY-275" vertex="1" connectable="0">
          <mxGeometry x="-0.1153" y="2" relative="1" as="geometry">
            <mxPoint as="offset" />
          </mxGeometry>
        </mxCell>
        <mxCell id="mAKKexBR_3H4zC9qlrCY-262" value="เงินเข้าไหม" style="rhombus;whiteSpace=wrap;html=1;rounded=0;" parent="mvioNwK95yMqdUQ73LqQ-36" vertex="1">
          <mxGeometry x="1965" y="2980" width="80" height="80" as="geometry" />
        </mxCell>
        <mxCell id="mAKKexBR_3H4zC9qlrCY-267" value="" style="edgeStyle=orthogonalEdgeStyle;rounded=0;orthogonalLoop=1;jettySize=auto;html=1;" parent="mvioNwK95yMqdUQ73LqQ-36" source="mAKKexBR_3H4zC9qlrCY-264" target="mAKKexBR_3H4zC9qlrCY-266" edge="1">
          <mxGeometry relative="1" as="geometry" />
        </mxCell>
        <mxCell id="mAKKexBR_3H4zC9qlrCY-264" value="ไม่เข้า" style="whiteSpace=wrap;html=1;rounded=0;" parent="mvioNwK95yMqdUQ73LqQ-36" vertex="1">
          <mxGeometry x="1790" y="3140" width="120" height="60" as="geometry" />
        </mxCell>
        <mxCell id="mAKKexBR_3H4zC9qlrCY-271" value="" style="edgeStyle=orthogonalEdgeStyle;rounded=0;orthogonalLoop=1;jettySize=auto;html=1;" parent="mvioNwK95yMqdUQ73LqQ-36" source="mAKKexBR_3H4zC9qlrCY-266" target="mAKKexBR_3H4zC9qlrCY-270" edge="1">
          <mxGeometry relative="1" as="geometry" />
        </mxCell>
        <mxCell id="mAKKexBR_3H4zC9qlrCY-266" value="ทอนเงินตามจำนวนที่ใส่เข้าไป" style="whiteSpace=wrap;html=1;rounded=0;" parent="mvioNwK95yMqdUQ73LqQ-36" vertex="1">
          <mxGeometry x="1590" y="3140" width="120" height="60" as="geometry" />
        </mxCell>
        <mxCell id="mAKKexBR_3H4zC9qlrCY-273" value="" style="edgeStyle=orthogonalEdgeStyle;rounded=0;orthogonalLoop=1;jettySize=auto;html=1;entryX=0;entryY=0.5;entryDx=0;entryDy=0;" parent="mvioNwK95yMqdUQ73LqQ-36" source="mAKKexBR_3H4zC9qlrCY-270" target="mAKKexBR_3H4zC9qlrCY-260" edge="1">
          <mxGeometry relative="1" as="geometry">
            <mxPoint x="1790" y="2850" as="targetPoint" />
          </mxGeometry>
        </mxCell>
        <mxCell id="mAKKexBR_3H4zC9qlrCY-270" value="ใส่เงินเข้าไปใหม่" style="whiteSpace=wrap;html=1;rounded=0;" parent="mvioNwK95yMqdUQ73LqQ-36" vertex="1">
          <mxGeometry x="1590" y="2820" width="120" height="60" as="geometry" />
        </mxCell>
        <mxCell id="mAKKexBR_3H4zC9qlrCY-277" value="" style="edgeStyle=orthogonalEdgeStyle;rounded=0;orthogonalLoop=1;jettySize=auto;html=1;" parent="mvioNwK95yMqdUQ73LqQ-36" source="mAKKexBR_3H4zC9qlrCY-274" target="mAKKexBR_3H4zC9qlrCY-276" edge="1">
          <mxGeometry relative="1" as="geometry" />
        </mxCell>
        <mxCell id="mAKKexBR_3H4zC9qlrCY-274" value="เข้า" style="whiteSpace=wrap;html=1;rounded=0;" parent="mvioNwK95yMqdUQ73LqQ-36" vertex="1">
          <mxGeometry x="1945" y="3240" width="120" height="60" as="geometry" />
        </mxCell>
        <mxCell id="mAKKexBR_3H4zC9qlrCY-281" value="" style="edgeStyle=orthogonalEdgeStyle;rounded=0;orthogonalLoop=1;jettySize=auto;html=1;" parent="mvioNwK95yMqdUQ73LqQ-36" source="mAKKexBR_3H4zC9qlrCY-276" target="mAKKexBR_3H4zC9qlrCY-280" edge="1">
          <mxGeometry relative="1" as="geometry" />
        </mxCell>
        <mxCell id="mAKKexBR_3H4zC9qlrCY-401" value="T" style="edgeLabel;html=1;align=center;verticalAlign=middle;resizable=0;points=[];" parent="mAKKexBR_3H4zC9qlrCY-281" vertex="1" connectable="0">
          <mxGeometry x="-0.0984" y="2" relative="1" as="geometry">
            <mxPoint as="offset" />
          </mxGeometry>
        </mxCell>
        <mxCell id="mAKKexBR_3H4zC9qlrCY-283" value="" style="edgeStyle=orthogonalEdgeStyle;rounded=0;orthogonalLoop=1;jettySize=auto;html=1;" parent="mvioNwK95yMqdUQ73LqQ-36" source="mAKKexBR_3H4zC9qlrCY-276" target="mAKKexBR_3H4zC9qlrCY-282" edge="1">
          <mxGeometry relative="1" as="geometry" />
        </mxCell>
        <mxCell id="mAKKexBR_3H4zC9qlrCY-402" value="F" style="edgeLabel;html=1;align=center;verticalAlign=middle;resizable=0;points=[];" parent="mAKKexBR_3H4zC9qlrCY-283" vertex="1" connectable="0">
          <mxGeometry x="-0.6095" y="2" relative="1" as="geometry">
            <mxPoint as="offset" />
          </mxGeometry>
        </mxCell>
        <mxCell id="mAKKexBR_3H4zC9qlrCY-276" value="เงินเต็มจำนวนไหม" style="rhombus;whiteSpace=wrap;html=1;rounded=0;" parent="mvioNwK95yMqdUQ73LqQ-36" vertex="1">
          <mxGeometry x="1942.5" y="3390" width="125" height="90" as="geometry" />
        </mxCell>
        <mxCell id="mAKKexBR_3H4zC9qlrCY-300" value="" style="edgeStyle=orthogonalEdgeStyle;rounded=0;orthogonalLoop=1;jettySize=auto;html=1;entryX=0;entryY=0.5;entryDx=0;entryDy=0;" parent="mvioNwK95yMqdUQ73LqQ-36" source="mAKKexBR_3H4zC9qlrCY-280" target="mAKKexBR_3H4zC9qlrCY-297" edge="1">
          <mxGeometry relative="1" as="geometry">
            <mxPoint x="2165" y="3605" as="targetPoint" />
          </mxGeometry>
        </mxCell>
        <mxCell id="mAKKexBR_3H4zC9qlrCY-280" value="เงินพอดี" style="whiteSpace=wrap;html=1;rounded=0;" parent="mvioNwK95yMqdUQ73LqQ-36" vertex="1">
          <mxGeometry x="1945" y="3570" width="120" height="60" as="geometry" />
        </mxCell>
        <mxCell id="mAKKexBR_3H4zC9qlrCY-287" value="" style="edgeStyle=orthogonalEdgeStyle;rounded=0;orthogonalLoop=1;jettySize=auto;html=1;" parent="mvioNwK95yMqdUQ73LqQ-36" source="mAKKexBR_3H4zC9qlrCY-282" target="mAKKexBR_3H4zC9qlrCY-286" edge="1">
          <mxGeometry relative="1" as="geometry" />
        </mxCell>
        <mxCell id="mAKKexBR_3H4zC9qlrCY-404" value="F" style="edgeLabel;html=1;align=center;verticalAlign=middle;resizable=0;points=[];" parent="mAKKexBR_3H4zC9qlrCY-287" vertex="1" connectable="0">
          <mxGeometry x="-0.1245" relative="1" as="geometry">
            <mxPoint as="offset" />
          </mxGeometry>
        </mxCell>
        <mxCell id="mAKKexBR_3H4zC9qlrCY-290" value="" style="edgeStyle=orthogonalEdgeStyle;rounded=0;orthogonalLoop=1;jettySize=auto;html=1;" parent="mvioNwK95yMqdUQ73LqQ-36" source="mAKKexBR_3H4zC9qlrCY-282" target="mAKKexBR_3H4zC9qlrCY-288" edge="1">
          <mxGeometry relative="1" as="geometry" />
        </mxCell>
        <mxCell id="mAKKexBR_3H4zC9qlrCY-403" value="T" style="edgeLabel;html=1;align=center;verticalAlign=middle;resizable=0;points=[];" parent="mAKKexBR_3H4zC9qlrCY-290" vertex="1" connectable="0">
          <mxGeometry x="-0.2411" relative="1" as="geometry">
            <mxPoint as="offset" />
          </mxGeometry>
        </mxCell>
        <mxCell id="mAKKexBR_3H4zC9qlrCY-282" value="เงินเกินไหม" style="rhombus;whiteSpace=wrap;html=1;rounded=0;" parent="mvioNwK95yMqdUQ73LqQ-36" vertex="1">
          <mxGeometry x="2430" y="3387.5" width="120" height="95" as="geometry" />
        </mxCell>
        <mxCell id="mAKKexBR_3H4zC9qlrCY-292" value="" style="edgeStyle=orthogonalEdgeStyle;rounded=0;orthogonalLoop=1;jettySize=auto;html=1;" parent="mvioNwK95yMqdUQ73LqQ-36" source="mAKKexBR_3H4zC9qlrCY-286" target="mAKKexBR_3H4zC9qlrCY-260" edge="1">
          <mxGeometry relative="1" as="geometry">
            <mxPoint x="2350.0000000000005" y="2850" as="targetPoint" />
          </mxGeometry>
        </mxCell>
        <mxCell id="mAKKexBR_3H4zC9qlrCY-286" value="เงินขาด" style="whiteSpace=wrap;html=1;rounded=0;" parent="mvioNwK95yMqdUQ73LqQ-36" vertex="1">
          <mxGeometry x="2430" y="2820" width="120" height="60" as="geometry" />
        </mxCell>
        <mxCell id="mAKKexBR_3H4zC9qlrCY-294" value="" style="edgeStyle=orthogonalEdgeStyle;rounded=0;orthogonalLoop=1;jettySize=auto;html=1;" parent="mvioNwK95yMqdUQ73LqQ-36" source="mAKKexBR_3H4zC9qlrCY-288" target="mAKKexBR_3H4zC9qlrCY-293" edge="1">
          <mxGeometry relative="1" as="geometry" />
        </mxCell>
        <mxCell id="mAKKexBR_3H4zC9qlrCY-288" value="เงินเกิน" style="whiteSpace=wrap;html=1;rounded=0;" parent="mvioNwK95yMqdUQ73LqQ-36" vertex="1">
          <mxGeometry x="2740" y="3405" width="120" height="60" as="geometry" />
        </mxCell>
        <mxCell id="mAKKexBR_3H4zC9qlrCY-298" value="" style="edgeStyle=orthogonalEdgeStyle;rounded=0;orthogonalLoop=1;jettySize=auto;html=1;" parent="mvioNwK95yMqdUQ73LqQ-36" source="mAKKexBR_3H4zC9qlrCY-293" target="mAKKexBR_3H4zC9qlrCY-297" edge="1">
          <mxGeometry relative="1" as="geometry" />
        </mxCell>
        <mxCell id="mAKKexBR_3H4zC9qlrCY-293" value="คิดเงินทอน" style="whiteSpace=wrap;html=1;rounded=0;" parent="mvioNwK95yMqdUQ73LqQ-36" vertex="1">
          <mxGeometry x="2740" y="3570" width="120" height="60" as="geometry" />
        </mxCell>
        <mxCell id="mAKKexBR_3H4zC9qlrCY-296" value="" style="edgeStyle=orthogonalEdgeStyle;rounded=0;orthogonalLoop=1;jettySize=auto;html=1;" parent="mvioNwK95yMqdUQ73LqQ-36" source="mAKKexBR_3H4zC9qlrCY-295" target="mAKKexBR_3H4zC9qlrCY-293" edge="1">
          <mxGeometry relative="1" as="geometry" />
        </mxCell>
        <mxCell id="mAKKexBR_3H4zC9qlrCY-295" value="ยอดเงินในตู้" style="rounded=0;whiteSpace=wrap;html=1;" parent="mvioNwK95yMqdUQ73LqQ-36" vertex="1">
          <mxGeometry x="3120" y="3570" width="120" height="60" as="geometry" />
        </mxCell>
        <mxCell id="mAKKexBR_3H4zC9qlrCY-302" value="" style="edgeStyle=orthogonalEdgeStyle;rounded=0;orthogonalLoop=1;jettySize=auto;html=1;" parent="mvioNwK95yMqdUQ73LqQ-36" source="mAKKexBR_3H4zC9qlrCY-297" target="mAKKexBR_3H4zC9qlrCY-301" edge="1">
          <mxGeometry relative="1" as="geometry" />
        </mxCell>
        <mxCell id="mAKKexBR_3H4zC9qlrCY-297" value="" style="ellipse;whiteSpace=wrap;html=1;rounded=0;" parent="mvioNwK95yMqdUQ73LqQ-36" vertex="1">
          <mxGeometry x="2390" y="3590" width="20" height="20" as="geometry" />
        </mxCell>
        <mxCell id="mAKKexBR_3H4zC9qlrCY-304" value="" style="edgeStyle=orthogonalEdgeStyle;rounded=0;orthogonalLoop=1;jettySize=auto;html=1;" parent="mvioNwK95yMqdUQ73LqQ-36" source="mAKKexBR_3H4zC9qlrCY-301" target="mAKKexBR_3H4zC9qlrCY-303" edge="1">
          <mxGeometry relative="1" as="geometry" />
        </mxCell>
        <mxCell id="mAKKexBR_3H4zC9qlrCY-301" value="ไดิสินค้า" style="whiteSpace=wrap;html=1;rounded=0;" parent="mvioNwK95yMqdUQ73LqQ-36" vertex="1">
          <mxGeometry x="2340" y="3670" width="120" height="60" as="geometry" />
        </mxCell>
        <mxCell id="mAKKexBR_3H4zC9qlrCY-303" value="สิ้นสุด" style="ellipse;whiteSpace=wrap;html=1;" parent="mvioNwK95yMqdUQ73LqQ-36" vertex="1">
          <mxGeometry x="2340" y="3870" width="120" height="80" as="geometry" />
        </mxCell>
        <mxCell id="mAKKexBR_3H4zC9qlrCY-311" value="" style="edgeStyle=orthogonalEdgeStyle;rounded=0;orthogonalLoop=1;jettySize=auto;html=1;entryX=1;entryY=0.5;entryDx=0;entryDy=0;" parent="mvioNwK95yMqdUQ73LqQ-36" source="mAKKexBR_3H4zC9qlrCY-305" target="mAKKexBR_3H4zC9qlrCY-295" edge="1">
          <mxGeometry relative="1" as="geometry">
            <mxPoint x="3420" y="3600" as="targetPoint" />
          </mxGeometry>
        </mxCell>
        <mxCell id="mAKKexBR_3H4zC9qlrCY-305" value="" style="ellipse;whiteSpace=wrap;html=1;rounded=0;" parent="mvioNwK95yMqdUQ73LqQ-36" vertex="1">
          <mxGeometry x="3500" y="3590" width="20" height="20" as="geometry" />
        </mxCell>
        <mxCell id="mAKKexBR_3H4zC9qlrCY-317" value="" style="edgeStyle=orthogonalEdgeStyle;rounded=0;orthogonalLoop=1;jettySize=auto;html=1;entryX=0.5;entryY=0;entryDx=0;entryDy=0;" parent="mvioNwK95yMqdUQ73LqQ-36" source="mAKKexBR_3H4zC9qlrCY-312" target="mAKKexBR_3H4zC9qlrCY-305" edge="1">
          <mxGeometry relative="1" as="geometry">
            <mxPoint x="3510" y="3330" as="targetPoint" />
          </mxGeometry>
        </mxCell>
        <mxCell id="mAKKexBR_3H4zC9qlrCY-312" value="เหรียญ" style="rounded=0;whiteSpace=wrap;html=1;" parent="mvioNwK95yMqdUQ73LqQ-36" vertex="1">
          <mxGeometry x="3450" y="3350" width="120" height="60" as="geometry" />
        </mxCell>
        <mxCell id="mAKKexBR_3H4zC9qlrCY-315" value="" style="edgeStyle=orthogonalEdgeStyle;rounded=0;orthogonalLoop=1;jettySize=auto;html=1;entryX=0.5;entryY=1;entryDx=0;entryDy=0;" parent="mvioNwK95yMqdUQ73LqQ-36" source="mAKKexBR_3H4zC9qlrCY-313" target="mAKKexBR_3H4zC9qlrCY-305" edge="1">
          <mxGeometry relative="1" as="geometry">
            <mxPoint x="3510" y="3686" as="targetPoint" />
          </mxGeometry>
        </mxCell>
        <mxCell id="mAKKexBR_3H4zC9qlrCY-313" value="ธนบัตร" style="rounded=0;whiteSpace=wrap;html=1;" parent="mvioNwK95yMqdUQ73LqQ-36" vertex="1">
          <mxGeometry x="3450" y="3766" width="120" height="60" as="geometry" />
        </mxCell>
        <mxCell id="mAKKexBR_3H4zC9qlrCY-336" value="" style="edgeStyle=orthogonalEdgeStyle;rounded=0;orthogonalLoop=1;jettySize=auto;html=1;entryX=0;entryY=0.5;entryDx=0;entryDy=0;" parent="mvioNwK95yMqdUQ73LqQ-36" source="mAKKexBR_3H4zC9qlrCY-318" target="mAKKexBR_3H4zC9qlrCY-333" edge="1">
          <mxGeometry relative="1" as="geometry">
            <mxPoint x="3100" y="4400" as="targetPoint" />
            <Array as="points">
              <mxPoint x="3100" y="4275" />
            </Array>
          </mxGeometry>
        </mxCell>
        <mxCell id="mAKKexBR_3H4zC9qlrCY-318" value="แบงค์20" style="rounded=0;whiteSpace=wrap;html=1;" parent="mvioNwK95yMqdUQ73LqQ-36" vertex="1">
          <mxGeometry x="3040" y="4470" width="120" height="60" as="geometry" />
        </mxCell>
        <mxCell id="mAKKexBR_3H4zC9qlrCY-332" value="" style="edgeStyle=orthogonalEdgeStyle;rounded=0;orthogonalLoop=1;jettySize=auto;html=1;" parent="mvioNwK95yMqdUQ73LqQ-36" source="mAKKexBR_3H4zC9qlrCY-320" edge="1">
          <mxGeometry relative="1" as="geometry">
            <mxPoint x="3500" y="4380" as="targetPoint" />
            <Array as="points">
              <mxPoint x="3300" y="4380" />
            </Array>
          </mxGeometry>
        </mxCell>
        <mxCell id="mAKKexBR_3H4zC9qlrCY-320" value="แบงค์50" style="rounded=0;whiteSpace=wrap;html=1;" parent="mvioNwK95yMqdUQ73LqQ-36" vertex="1">
          <mxGeometry x="3240" y="4470" width="120" height="60" as="geometry" />
        </mxCell>
        <mxCell id="mAKKexBR_3H4zC9qlrCY-327" value="" style="edgeStyle=orthogonalEdgeStyle;rounded=0;orthogonalLoop=1;jettySize=auto;html=1;" parent="mvioNwK95yMqdUQ73LqQ-36" source="mAKKexBR_3H4zC9qlrCY-321" target="mAKKexBR_3H4zC9qlrCY-326" edge="1">
          <mxGeometry relative="1" as="geometry" />
        </mxCell>
        <mxCell id="mAKKexBR_3H4zC9qlrCY-321" value="แบงค์100" style="rounded=0;whiteSpace=wrap;html=1;" parent="mvioNwK95yMqdUQ73LqQ-36" vertex="1">
          <mxGeometry x="3450" y="4470" width="120" height="60" as="geometry" />
        </mxCell>
        <mxCell id="mAKKexBR_3H4zC9qlrCY-329" value="" style="edgeStyle=orthogonalEdgeStyle;rounded=0;orthogonalLoop=1;jettySize=auto;html=1;entryX=1;entryY=0.5;entryDx=0;entryDy=0;" parent="mvioNwK95yMqdUQ73LqQ-36" source="mAKKexBR_3H4zC9qlrCY-322" target="mAKKexBR_3H4zC9qlrCY-326" edge="1">
          <mxGeometry relative="1" as="geometry">
            <mxPoint x="3709.999999999999" y="4390" as="targetPoint" />
            <Array as="points">
              <mxPoint x="3710" y="4385" />
            </Array>
          </mxGeometry>
        </mxCell>
        <mxCell id="mAKKexBR_3H4zC9qlrCY-322" value="แบงค์500" style="rounded=0;whiteSpace=wrap;html=1;" parent="mvioNwK95yMqdUQ73LqQ-36" vertex="1">
          <mxGeometry x="3650" y="4470" width="120" height="60" as="geometry" />
        </mxCell>
        <mxCell id="mAKKexBR_3H4zC9qlrCY-338" value="" style="edgeStyle=orthogonalEdgeStyle;rounded=0;orthogonalLoop=1;jettySize=auto;html=1;entryX=1;entryY=0.5;entryDx=0;entryDy=0;" parent="mvioNwK95yMqdUQ73LqQ-36" source="mAKKexBR_3H4zC9qlrCY-323" target="mAKKexBR_3H4zC9qlrCY-333" edge="1">
          <mxGeometry relative="1" as="geometry">
            <mxPoint x="3900" y="4400" as="targetPoint" />
            <Array as="points">
              <mxPoint x="3900" y="4275" />
            </Array>
          </mxGeometry>
        </mxCell>
        <mxCell id="mAKKexBR_3H4zC9qlrCY-323" value="แบงค์1000" style="rounded=0;whiteSpace=wrap;html=1;" parent="mvioNwK95yMqdUQ73LqQ-36" vertex="1">
          <mxGeometry x="3840" y="4470" width="120" height="60" as="geometry" />
        </mxCell>
        <mxCell id="mAKKexBR_3H4zC9qlrCY-334" value="" style="edgeStyle=orthogonalEdgeStyle;rounded=0;orthogonalLoop=1;jettySize=auto;html=1;" parent="mvioNwK95yMqdUQ73LqQ-36" source="mAKKexBR_3H4zC9qlrCY-326" target="mAKKexBR_3H4zC9qlrCY-333" edge="1">
          <mxGeometry relative="1" as="geometry" />
        </mxCell>
        <mxCell id="mAKKexBR_3H4zC9qlrCY-326" value="" style="ellipse;whiteSpace=wrap;html=1;rounded=0;" parent="mvioNwK95yMqdUQ73LqQ-36" vertex="1">
          <mxGeometry x="3495" y="4370" width="30" height="30" as="geometry" />
        </mxCell>
        <mxCell id="mAKKexBR_3H4zC9qlrCY-340" value="" style="edgeStyle=orthogonalEdgeStyle;rounded=0;orthogonalLoop=1;jettySize=auto;html=1;" parent="mvioNwK95yMqdUQ73LqQ-36" source="mAKKexBR_3H4zC9qlrCY-333" target="mAKKexBR_3H4zC9qlrCY-339" edge="1">
          <mxGeometry relative="1" as="geometry" />
        </mxCell>
        <mxCell id="mAKKexBR_3H4zC9qlrCY-333" value="" style="ellipse;whiteSpace=wrap;html=1;rounded=0;" parent="mvioNwK95yMqdUQ73LqQ-36" vertex="1">
          <mxGeometry x="3495" y="4260" width="30" height="30" as="geometry" />
        </mxCell>
        <mxCell id="mAKKexBR_3H4zC9qlrCY-342" value="" style="edgeStyle=orthogonalEdgeStyle;rounded=0;orthogonalLoop=1;jettySize=auto;html=1;" parent="mvioNwK95yMqdUQ73LqQ-36" source="mAKKexBR_3H4zC9qlrCY-339" target="mAKKexBR_3H4zC9qlrCY-341" edge="1">
          <mxGeometry relative="1" as="geometry" />
        </mxCell>
        <mxCell id="mAKKexBR_3H4zC9qlrCY-405" value="F" style="edgeLabel;html=1;align=center;verticalAlign=middle;resizable=0;points=[];" parent="mAKKexBR_3H4zC9qlrCY-342" vertex="1" connectable="0">
          <mxGeometry x="0.5213" y="-3" relative="1" as="geometry">
            <mxPoint as="offset" />
          </mxGeometry>
        </mxCell>
        <mxCell id="mAKKexBR_3H4zC9qlrCY-344" value="" style="edgeStyle=orthogonalEdgeStyle;rounded=0;orthogonalLoop=1;jettySize=auto;html=1;" parent="mvioNwK95yMqdUQ73LqQ-36" source="mAKKexBR_3H4zC9qlrCY-339" target="mAKKexBR_3H4zC9qlrCY-343" edge="1">
          <mxGeometry relative="1" as="geometry" />
        </mxCell>
        <mxCell id="mAKKexBR_3H4zC9qlrCY-406" value="T" style="edgeLabel;html=1;align=center;verticalAlign=middle;resizable=0;points=[];" parent="mAKKexBR_3H4zC9qlrCY-344" vertex="1" connectable="0">
          <mxGeometry x="-0.1452" y="2" relative="1" as="geometry">
            <mxPoint as="offset" />
          </mxGeometry>
        </mxCell>
        <mxCell id="mAKKexBR_3H4zC9qlrCY-339" value="จำนวนธนบัตร" style="rhombus;whiteSpace=wrap;html=1;rounded=0;" parent="mvioNwK95yMqdUQ73LqQ-36" vertex="1">
          <mxGeometry x="3457.5" y="4110" width="105" height="95" as="geometry" />
        </mxCell>
        <mxCell id="mAKKexBR_3H4zC9qlrCY-346" value="" style="edgeStyle=orthogonalEdgeStyle;rounded=0;orthogonalLoop=1;jettySize=auto;html=1;entryX=1;entryY=0.5;entryDx=0;entryDy=0;" parent="mvioNwK95yMqdUQ73LqQ-36" source="mAKKexBR_3H4zC9qlrCY-341" target="mAKKexBR_3H4zC9qlrCY-313" edge="1">
          <mxGeometry relative="1" as="geometry">
            <mxPoint x="3690" y="3890" as="targetPoint" />
            <Array as="points">
              <mxPoint x="3690" y="3796" />
            </Array>
          </mxGeometry>
        </mxCell>
        <mxCell id="mAKKexBR_3H4zC9qlrCY-341" value="ไม่มีธนบัตร" style="whiteSpace=wrap;html=1;rounded=0;" parent="mvioNwK95yMqdUQ73LqQ-36" vertex="1">
          <mxGeometry x="3630" y="3970" width="120" height="60" as="geometry" />
        </mxCell>
        <mxCell id="mAKKexBR_3H4zC9qlrCY-348" value="" style="edgeStyle=orthogonalEdgeStyle;rounded=0;orthogonalLoop=1;jettySize=auto;html=1;" parent="mvioNwK95yMqdUQ73LqQ-36" source="mAKKexBR_3H4zC9qlrCY-343" target="mAKKexBR_3H4zC9qlrCY-313" edge="1">
          <mxGeometry relative="1" as="geometry">
            <mxPoint x="3510" y="3890" as="targetPoint" />
          </mxGeometry>
        </mxCell>
        <mxCell id="mAKKexBR_3H4zC9qlrCY-343" value="มีธนบัตร x ธนบัตร&amp;nbsp;" style="whiteSpace=wrap;html=1;rounded=0;" parent="mvioNwK95yMqdUQ73LqQ-36" vertex="1">
          <mxGeometry x="3450" y="3970" width="120" height="60" as="geometry" />
        </mxCell>
        <mxCell id="mAKKexBR_3H4zC9qlrCY-372" value="" style="edgeStyle=orthogonalEdgeStyle;rounded=0;orthogonalLoop=1;jettySize=auto;html=1;entryX=0;entryY=0.5;entryDx=0;entryDy=0;" parent="mvioNwK95yMqdUQ73LqQ-36" source="mAKKexBR_3H4zC9qlrCY-350" target="mAKKexBR_3H4zC9qlrCY-361" edge="1">
          <mxGeometry relative="1" as="geometry">
            <mxPoint x="3190.5" y="2770.0000000000005" as="targetPoint" />
            <Array as="points">
              <mxPoint x="3190.5" y="2775" />
            </Array>
          </mxGeometry>
        </mxCell>
        <mxCell id="mAKKexBR_3H4zC9qlrCY-350" value="เหรียญ 1" style="rounded=0;whiteSpace=wrap;html=1;" parent="mvioNwK95yMqdUQ73LqQ-36" vertex="1">
          <mxGeometry x="3130.5" y="2640" width="120" height="60" as="geometry" />
        </mxCell>
        <mxCell id="mAKKexBR_3H4zC9qlrCY-370" value="" style="edgeStyle=orthogonalEdgeStyle;rounded=0;orthogonalLoop=1;jettySize=auto;html=1;" parent="mvioNwK95yMqdUQ73LqQ-36" source="mAKKexBR_3H4zC9qlrCY-352" target="mAKKexBR_3H4zC9qlrCY-361" edge="1">
          <mxGeometry relative="1" as="geometry" />
        </mxCell>
        <mxCell id="mAKKexBR_3H4zC9qlrCY-352" value="เหรียญ 2" style="rounded=0;whiteSpace=wrap;html=1;" parent="mvioNwK95yMqdUQ73LqQ-36" vertex="1">
          <mxGeometry x="3348.5" y="2640" width="120" height="60" as="geometry" />
        </mxCell>
        <mxCell id="mAKKexBR_3H4zC9qlrCY-353" value="" style="edgeStyle=orthogonalEdgeStyle;rounded=0;orthogonalLoop=1;jettySize=auto;html=1;" parent="mvioNwK95yMqdUQ73LqQ-36" source="mAKKexBR_3H4zC9qlrCY-354" target="mAKKexBR_3H4zC9qlrCY-360" edge="1">
          <mxGeometry relative="1" as="geometry" />
        </mxCell>
        <mxCell id="mAKKexBR_3H4zC9qlrCY-354" value="เหรียญ 5" style="rounded=0;whiteSpace=wrap;html=1;" parent="mvioNwK95yMqdUQ73LqQ-36" vertex="1">
          <mxGeometry x="3548.5" y="2640" width="120" height="60" as="geometry" />
        </mxCell>
        <mxCell id="mAKKexBR_3H4zC9qlrCY-355" value="" style="edgeStyle=orthogonalEdgeStyle;rounded=0;orthogonalLoop=1;jettySize=auto;html=1;entryX=1;entryY=0.5;entryDx=0;entryDy=0;" parent="mvioNwK95yMqdUQ73LqQ-36" source="mAKKexBR_3H4zC9qlrCY-356" target="mAKKexBR_3H4zC9qlrCY-360" edge="1">
          <mxGeometry relative="1" as="geometry">
            <mxPoint x="3808.499999999999" y="3000" as="targetPoint" />
            <Array as="points">
              <mxPoint x="3808.5" y="2775" />
            </Array>
          </mxGeometry>
        </mxCell>
        <mxCell id="mAKKexBR_3H4zC9qlrCY-356" value="เหรียญ10" style="rounded=0;whiteSpace=wrap;html=1;" parent="mvioNwK95yMqdUQ73LqQ-36" vertex="1">
          <mxGeometry x="3738.5" y="2640" width="120" height="60" as="geometry" />
        </mxCell>
        <mxCell id="mAKKexBR_3H4zC9qlrCY-378" value="" style="edgeStyle=orthogonalEdgeStyle;rounded=0;orthogonalLoop=1;jettySize=auto;html=1;" parent="mvioNwK95yMqdUQ73LqQ-36" source="mAKKexBR_3H4zC9qlrCY-360" target="mAKKexBR_3H4zC9qlrCY-373" edge="1">
          <mxGeometry relative="1" as="geometry" />
        </mxCell>
        <mxCell id="mAKKexBR_3H4zC9qlrCY-360" value="" style="ellipse;whiteSpace=wrap;html=1;rounded=0;" parent="mvioNwK95yMqdUQ73LqQ-36" vertex="1">
          <mxGeometry x="3593.5" y="2760" width="30" height="30" as="geometry" />
        </mxCell>
        <mxCell id="mAKKexBR_3H4zC9qlrCY-374" value="" style="edgeStyle=orthogonalEdgeStyle;rounded=0;orthogonalLoop=1;jettySize=auto;html=1;" parent="mvioNwK95yMqdUQ73LqQ-36" source="mAKKexBR_3H4zC9qlrCY-361" target="mAKKexBR_3H4zC9qlrCY-373" edge="1">
          <mxGeometry relative="1" as="geometry" />
        </mxCell>
        <mxCell id="mAKKexBR_3H4zC9qlrCY-361" value="" style="ellipse;whiteSpace=wrap;html=1;rounded=0;" parent="mvioNwK95yMqdUQ73LqQ-36" vertex="1">
          <mxGeometry x="3393.5" y="2760" width="30" height="30" as="geometry" />
        </mxCell>
        <mxCell id="mAKKexBR_3H4zC9qlrCY-380" value="" style="edgeStyle=orthogonalEdgeStyle;rounded=0;orthogonalLoop=1;jettySize=auto;html=1;" parent="mvioNwK95yMqdUQ73LqQ-36" source="mAKKexBR_3H4zC9qlrCY-373" target="mAKKexBR_3H4zC9qlrCY-379" edge="1">
          <mxGeometry relative="1" as="geometry" />
        </mxCell>
        <mxCell id="mAKKexBR_3H4zC9qlrCY-373" value="" style="ellipse;whiteSpace=wrap;html=1;rounded=0;" parent="mvioNwK95yMqdUQ73LqQ-36" vertex="1">
          <mxGeometry x="3494.5" y="2760" width="30" height="30" as="geometry" />
        </mxCell>
        <mxCell id="mAKKexBR_3H4zC9qlrCY-382" value="" style="edgeStyle=orthogonalEdgeStyle;rounded=0;orthogonalLoop=1;jettySize=auto;html=1;" parent="mvioNwK95yMqdUQ73LqQ-36" source="mAKKexBR_3H4zC9qlrCY-379" target="mAKKexBR_3H4zC9qlrCY-381" edge="1">
          <mxGeometry relative="1" as="geometry" />
        </mxCell>
        <mxCell id="mAKKexBR_3H4zC9qlrCY-407" value="T" style="edgeLabel;html=1;align=center;verticalAlign=middle;resizable=0;points=[];" parent="mAKKexBR_3H4zC9qlrCY-382" vertex="1" connectable="0">
          <mxGeometry x="-0.0551" y="-1" relative="1" as="geometry">
            <mxPoint as="offset" />
          </mxGeometry>
        </mxCell>
        <mxCell id="mAKKexBR_3H4zC9qlrCY-384" value="" style="edgeStyle=orthogonalEdgeStyle;rounded=0;orthogonalLoop=1;jettySize=auto;html=1;" parent="mvioNwK95yMqdUQ73LqQ-36" source="mAKKexBR_3H4zC9qlrCY-379" target="mAKKexBR_3H4zC9qlrCY-383" edge="1">
          <mxGeometry relative="1" as="geometry" />
        </mxCell>
        <mxCell id="mAKKexBR_3H4zC9qlrCY-408" value="F" style="edgeLabel;html=1;align=center;verticalAlign=middle;resizable=0;points=[];" parent="mAKKexBR_3H4zC9qlrCY-384" vertex="1" connectable="0">
          <mxGeometry x="-0.4696" y="-5" relative="1" as="geometry">
            <mxPoint as="offset" />
          </mxGeometry>
        </mxCell>
        <mxCell id="mAKKexBR_3H4zC9qlrCY-379" value="จำนวนเหรียญ&amp;nbsp;" style="rhombus;whiteSpace=wrap;html=1;rounded=0;" parent="mvioNwK95yMqdUQ73LqQ-36" vertex="1">
          <mxGeometry x="3452" y="2850" width="115" height="105" as="geometry" />
        </mxCell>
        <mxCell id="mAKKexBR_3H4zC9qlrCY-386" value="" style="edgeStyle=orthogonalEdgeStyle;rounded=0;orthogonalLoop=1;jettySize=auto;html=1;" parent="mvioNwK95yMqdUQ73LqQ-36" source="mAKKexBR_3H4zC9qlrCY-381" target="mAKKexBR_3H4zC9qlrCY-385" edge="1">
          <mxGeometry relative="1" as="geometry" />
        </mxCell>
        <mxCell id="mAKKexBR_3H4zC9qlrCY-381" value="มีเหรียญ x เหรียญ&amp;nbsp;" style="whiteSpace=wrap;html=1;rounded=0;" parent="mvioNwK95yMqdUQ73LqQ-36" vertex="1">
          <mxGeometry x="3449.5" y="3057.5" width="120" height="60" as="geometry" />
        </mxCell>
        <mxCell id="mAKKexBR_3H4zC9qlrCY-388" value="" style="edgeStyle=orthogonalEdgeStyle;rounded=0;orthogonalLoop=1;jettySize=auto;html=1;entryX=1;entryY=0.5;entryDx=0;entryDy=0;" parent="mvioNwK95yMqdUQ73LqQ-36" source="mAKKexBR_3H4zC9qlrCY-383" target="mAKKexBR_3H4zC9qlrCY-385" edge="1">
          <mxGeometry relative="1" as="geometry">
            <mxPoint x="3707.0333333333338" y="3200" as="targetPoint" />
            <Array as="points">
              <mxPoint x="3714.5" y="3216" />
            </Array>
          </mxGeometry>
        </mxCell>
        <mxCell id="mAKKexBR_3H4zC9qlrCY-383" value="ไม่มีเหรียญ" style="whiteSpace=wrap;html=1;rounded=0;" parent="mvioNwK95yMqdUQ73LqQ-36" vertex="1">
          <mxGeometry x="3654.5" y="2970" width="120" height="60" as="geometry" />
        </mxCell>
        <mxCell id="mAKKexBR_3H4zC9qlrCY-390" value="" style="edgeStyle=orthogonalEdgeStyle;rounded=0;orthogonalLoop=1;jettySize=auto;html=1;entryX=0.5;entryY=0;entryDx=0;entryDy=0;" parent="mvioNwK95yMqdUQ73LqQ-36" source="mAKKexBR_3H4zC9qlrCY-385" target="mAKKexBR_3H4zC9qlrCY-312" edge="1">
          <mxGeometry relative="1" as="geometry">
            <mxPoint x="3509.5" y="3302.5" as="targetPoint" />
          </mxGeometry>
        </mxCell>
        <mxCell id="mAKKexBR_3H4zC9qlrCY-385" value="" style="ellipse;whiteSpace=wrap;html=1;rounded=0;" parent="mvioNwK95yMqdUQ73LqQ-36" vertex="1">
          <mxGeometry x="3502" y="3210" width="15" height="12.5" as="geometry" />
        </mxCell>
        <mxCell id="mvioNwK95yMqdUQ73LqQ-70" value="&lt;font data-font-src=&quot;https://fonts.googleapis.com/css?family=Sarabun&quot; face=&quot;Sarabun&quot;&gt;โจทย์ปัญหา&lt;/font&gt;" style="swimlane;whiteSpace=wrap;html=1;" parent="WIyWlLk6GJQsqaUBKTNV-1" vertex="1">
          <mxGeometry x="-720" y="320" width="640" height="240" as="geometry" />
        </mxCell>
        <mxCell id="mvioNwK95yMqdUQ73LqQ-71" value="&lt;font data-font-src=&quot;https://fonts.googleapis.com/css?family=Sarabun&quot; face=&quot;Sarabun&quot; style=&quot;font-size: 14px;&quot;&gt;จงเขียน Flowchart เพื่อแสดงขั้นตอนการทำงาน ของเครื่องขายน้ำอัตโนมัติที่ชื่อว่า &quot;ตะพาบลอย&quot;&lt;br&gt;โดยจะต้องมีสินค้าดังนี้&lt;br&gt;&lt;u&gt;ประเภทน้ำ&lt;span style=&quot;white-space: pre;&quot;&gt;&#x9;&lt;/span&gt;&lt;span style=&quot;white-space: pre;&quot;&gt;&#x9;&lt;/span&gt;&lt;span style=&quot;white-space: pre;&quot;&gt;&#x9;&lt;/span&gt;&lt;span style=&quot;white-space: pre;&quot;&gt;&#x9;&lt;/span&gt;&lt;span style=&quot;white-space: pre;&quot;&gt;&#x9;&lt;/span&gt;&lt;span style=&quot;white-space: pre;&quot;&gt;&#x9;&lt;span style=&quot;white-space: pre;&quot;&gt;&#x9;&lt;/span&gt;ข&lt;/span&gt;นม&lt;/u&gt;&lt;br&gt;&lt;span style=&quot;white-space: pre;&quot;&gt;&#x9;&lt;/span&gt;- โค้ก กระป๋องละ 10 บาท&lt;span style=&quot;white-space: pre;&quot;&gt;&#x9;&lt;/span&gt;&lt;span style=&quot;white-space: pre;&quot;&gt;&#x9;&lt;/span&gt;&lt;span style=&quot;white-space: pre;&quot;&gt;&#x9;&lt;/span&gt;&lt;span style=&quot;white-space: pre;&quot;&gt;&#x9;&lt;/span&gt;- เมล็ดทานตะวัน 13 บาท&lt;br&gt;&lt;span style=&quot;white-space: pre;&quot;&gt;&#x9;&lt;/span&gt;- น้ำเขียว กระป๋องละ 12 บาท&lt;span style=&quot;white-space: pre;&quot;&gt;&#x9;&lt;/span&gt;&lt;span style=&quot;white-space: pre;&quot;&gt;&#x9;&lt;/span&gt;&lt;span style=&quot;white-space: pre;&quot;&gt;&#x9;&lt;/span&gt;- ถั่วแปบ 20 บาท&lt;br&gt;&lt;span style=&quot;white-space: pre;&quot;&gt;&#x9;&lt;/span&gt;- อเมริกาโน่ 30 บาท&lt;span style=&quot;white-space: pre;&quot;&gt;&#x9;&lt;/span&gt;&lt;span style=&quot;white-space: pre;&quot;&gt;&#x9;&lt;/span&gt;&lt;span style=&quot;white-space: pre;&quot;&gt;&#x9;&lt;/span&gt;&lt;span style=&quot;white-space: pre;&quot;&gt;&#x9;&lt;/span&gt;&lt;span style=&quot;white-space: pre;&quot;&gt;&#x9;&lt;/span&gt;- จิ้นส้มหมก 15 บาท&lt;br&gt;&lt;span style=&quot;white-space: pre;&quot;&gt;&#x9;&lt;/span&gt;- ลาเต้ หวานเจี๊ยบ 35 บาท&lt;span style=&quot;white-space: pre;&quot;&gt;&#x9;&lt;/span&gt;&lt;br&gt;&lt;br&gt;&lt;u&gt;สิ่งที่ระบบควรจะทำได้&lt;/u&gt;&lt;br&gt;&lt;span style=&quot;white-space: pre;&quot;&gt;&#x9;&lt;/span&gt;- ลูกค้าเลือกสินค้า, ระบบจะต้องรวมยอดขาย และรวมรายการสินค้าทั้งหมดที่ลูกค้าเลือก&lt;br&gt;&lt;span style=&quot;white-space: pre;&quot;&gt;&#x9;&lt;/span&gt;- สรุปยอดว่าเหลือเงินในตู้อีกเท่าไหร่ เหลือเหรียญอะไรบ้าง? ธนบัตรอะไรบ้าง? อย่างละเท่าไหร่?&lt;br&gt;&lt;br&gt;&lt;br&gt;&lt;/font&gt;" style="text;html=1;align=left;verticalAlign=middle;resizable=0;points=[];autosize=1;strokeColor=none;fillColor=none;fontSize=14;" parent="mvioNwK95yMqdUQ73LqQ-70" vertex="1">
          <mxGeometry x="25" y="30" width="580" height="240" as="geometry" />
        </mxCell>
      </root>
    </mxGraphModel>
  </diagram>
</mxfile>
